<svg width="143" height="50" viewBox="0 0 143 50" fill="none" xmlns="http://www.w3.org/2000/svg">
<rect x="0.25" y="0.25" width="142.233" height="49.5" rx="9.75" fill="white" stroke="#1B1C20" stroke-width="0.5"/>
<path d="M11.9998 13.0891V25.2702V37.4514L24.2764 25.2702L11.9998 13.0891Z" fill="url(#paint0_linear_10723_6746)"/>
<path d="M27.575 21.9988L22.6175 19.1368L11.9998 13V13.0903L24.2764 25.2714L27.575 21.9988Z" fill="url(#paint1_linear_10723_6746)"/>
<path d="M11.9998 37.4519V37.5401L22.6175 31.4054L27.5729 28.5413L24.2764 25.2708L11.9998 37.4519Z" fill="url(#paint2_linear_10723_6746)"/>
<path d="M27.573 21.9974L24.2744 25.2701L27.5708 28.5406L33.2353 25.2701L27.573 21.9974Z" fill="url(#paint3_linear_10723_6746)"/>
<path d="M41.0519 19.52C41.9509 19.52 42.7675 19.1163 43.0243 18.3824V19.4099H43.7491V16.5567H41.2629V17.1806H43.0243C42.9234 18.1714 42.2262 18.8503 41.1436 18.8503C39.8959 18.8503 39.0519 17.9604 39.0519 16.5292C39.0519 15.098 39.8867 14.1989 41.0702 14.1989C42.2354 14.1989 42.9143 14.8962 42.9785 15.9512L43.7399 15.9053C43.639 14.4283 42.6941 13.52 41.061 13.52C39.4647 13.52 38.2354 14.7402 38.2354 16.52C38.2354 18.3182 39.4188 19.52 41.0519 19.52Z" fill="#1B1C20"/>
<path d="M47.8269 17.9879C47.6617 18.6026 47.2672 18.9237 46.5975 18.9237C45.8819 18.9237 45.3223 18.3732 45.2856 17.5934H48.4783V17.2906C48.4783 16.1989 47.8269 15.2906 46.5517 15.2906C45.3957 15.2906 44.5241 16.1989 44.5241 17.465C44.5241 18.7127 45.3957 19.52 46.5883 19.52C47.5883 19.52 48.2581 18.9695 48.4599 18.0613L47.8269 17.9879ZM45.3039 17.098C45.3957 16.4374 45.8269 15.8686 46.5517 15.8686C47.3131 15.8686 47.6709 16.4558 47.6984 17.098H45.3039Z" fill="#1B1C20"/>
<path d="M49.4072 18.4741C49.4072 19.2539 49.8109 19.52 50.3797 19.52C50.8201 19.52 51.1136 19.4007 51.4072 19.1806V18.6668C51.1779 18.7952 50.9118 18.9053 50.6549 18.9053C50.3063 18.9053 50.1595 18.7402 50.1595 18.3824V15.9512H51.288V15.4007H50.1595V14.2906H49.7283L49.6091 14.8503C49.5173 15.2356 49.4348 15.4191 49.0586 15.4925L48.8017 15.5384V15.9512H49.4072V18.4741Z" fill="#1B1C20"/>
<path d="M53.7224 15.4007V19.4099H54.4838V15.4007H53.7224ZM53.704 14.4925H54.493V13.6301H53.704V14.4925Z" fill="#1B1C20"/>
<path d="M55.6608 18.4741C55.6608 19.2539 56.0645 19.52 56.6333 19.52C57.0737 19.52 57.3672 19.4007 57.6608 19.1806V18.6668C57.4315 18.7952 57.1654 18.9053 56.9085 18.9053C56.5599 18.9053 56.4131 18.7402 56.4131 18.3824V15.9512H57.5415V15.4007H56.4131V14.2906H55.9819L55.8626 14.8503C55.7709 15.2356 55.6883 15.4191 55.3122 15.4925L55.0553 15.5384V15.9512H55.6608V18.4741Z" fill="#1B1C20"/>
<path d="M60.4989 17.4099C60.4989 16.5108 60.9484 15.887 61.7558 15.887C62.5723 15.887 63.031 16.5108 63.031 17.4099C63.031 18.2998 62.5723 18.9328 61.7558 18.9328C60.9484 18.9328 60.4989 18.2998 60.4989 17.4099ZM63.8108 17.4099C63.8108 16.1622 62.9393 15.2906 61.7558 15.2906C60.5815 15.2906 59.7191 16.1622 59.7191 17.4099C59.7191 18.6576 60.5815 19.52 61.7558 19.52C62.9393 19.52 63.8108 18.6576 63.8108 17.4099Z" fill="#1B1C20"/>
<path d="M65.3604 17.1072C65.3604 16.3732 65.8375 15.8962 66.443 15.8962C67.076 15.8962 67.3971 16.3182 67.3971 16.9879V19.4099H68.1586V16.9237C68.1586 15.9879 67.7366 15.2906 66.6907 15.2906C66.0944 15.2906 65.5531 15.6301 65.3604 16.1163V15.4007H64.599V19.4099H65.3604V17.1072Z" fill="#1B1C20"/>
<path d="M43.8604 34.0421C45.4045 34.0421 46.728 33.5274 47.353 32.3693V33.8215H49.7979V27.884H44.3934V29.906H47.1692C46.7648 31.0457 45.6802 31.6891 44.4118 31.6891C42.2979 31.6891 41.103 30.2369 41.103 28.031C41.103 25.8803 42.2611 24.4832 44.1912 24.4832C45.864 24.4832 46.8567 25.4207 47.0037 26.8729L49.7243 26.781C49.467 23.8582 47.5001 22.02 44.1361 22.02C40.8273 22.02 38.2354 24.4649 38.2354 28.031C38.2354 31.6156 40.6434 34.0421 43.8604 34.0421Z" fill="#1B1C20"/>
<path d="M53.7182 29.7406C53.7182 28.3803 54.2513 27.4428 55.4277 27.4428C56.5858 27.4428 57.1557 28.3803 57.1557 29.7406C57.1557 31.1009 56.5858 32.0384 55.4277 32.0384C54.2513 32.0384 53.7182 31.1009 53.7182 29.7406ZM59.8395 29.7406C59.8395 27.2222 58.038 25.4391 55.4277 25.4391C52.8174 25.4391 51.0344 27.2222 51.0344 29.7406C51.0344 32.2774 52.8174 34.0421 55.4277 34.0421C58.038 34.0421 59.8395 32.2774 59.8395 29.7406Z" fill="#1B1C20"/>
<path d="M63.394 29.7406C63.394 28.3803 63.9271 27.4428 65.1036 27.4428C66.2617 27.4428 66.8315 28.3803 66.8315 29.7406C66.8315 31.1009 66.2617 32.0384 65.1036 32.0384C63.9271 32.0384 63.394 31.1009 63.394 29.7406ZM69.5154 29.7406C69.5154 27.2222 67.7139 25.4391 65.1036 25.4391C62.4933 25.4391 60.7102 27.2222 60.7102 29.7406C60.7102 32.2774 62.4933 34.0421 65.1036 34.0421C67.7139 34.0421 69.5154 32.2774 69.5154 29.7406Z" fill="#1B1C20"/>
<path d="M78.2918 28.2332C78.2918 27.8104 78.1815 27.4428 77.9977 27.1119C78.4021 27.0016 78.88 26.9465 79.2661 26.9465V24.906C78.3837 24.906 77.5197 25.4575 77.0418 26.1193C76.3616 25.6781 75.4241 25.4391 74.4315 25.4391C72.1888 25.4391 70.5896 26.5053 70.5896 28.2332C70.5896 29.1156 71.0124 29.8325 71.7477 30.3104C70.9021 30.6229 70.3874 31.2296 70.3874 31.9832C70.3874 32.6818 70.8102 33.3068 71.5455 33.5457C70.608 33.6377 69.9646 34.2259 69.9646 34.9796C69.9646 36.5053 71.9315 37.02 74.2293 37.02C76.8396 37.02 79.2661 36.1193 79.2661 34.0788C79.2661 32.7369 78.3286 31.7627 76.5087 31.7627H73.1631C72.63 31.7627 72.4094 31.5237 72.4094 31.2112C72.4094 31.009 72.5013 30.8619 72.63 30.7516C73.1631 30.9171 73.7697 31.009 74.4315 31.009C76.6741 31.009 78.2918 29.9428 78.2918 28.2332ZM72.2256 34.6671C72.2256 34.2443 72.5565 34.0421 72.9793 34.0421H75.8653C76.4719 34.0421 76.8028 34.1891 76.8028 34.6303C76.8028 35.2369 75.7183 35.5494 74.2477 35.5494C73.0528 35.5494 72.2256 35.3104 72.2256 34.6671ZM75.5528 28.2332C75.5528 29.0604 75.0933 29.5384 74.4499 29.5384C73.8249 29.5384 73.3653 29.0604 73.3653 28.2332C73.3653 27.4244 73.8249 26.9649 74.4499 26.9649C75.0933 26.9649 75.5528 27.4244 75.5528 28.2332Z" fill="#1B1C20"/>
<path d="M80.1445 22.2406V33.8215H82.7916V22.2406H80.1445Z" fill="#1B1C20"/>
<path d="M90.3703 30.9354C90.0762 31.6891 89.5063 32.0384 88.5872 32.0384C87.5578 32.0384 86.749 31.4134 86.6754 30.3288H92.5578V29.52C92.5578 27.2957 91.1423 25.4391 88.4401 25.4391C85.9401 25.4391 84.0651 27.2957 84.0651 29.8693C84.0651 32.4612 85.9034 34.0421 88.4953 34.0421C90.6276 34.0421 92.0798 32.9943 92.5026 31.1377L90.3703 30.9354ZM86.7122 28.9134C86.8593 28.0494 87.3556 27.3693 88.4218 27.3693C89.4328 27.3693 89.9475 28.1046 90.0026 28.9134H86.7122Z" fill="#1B1C20"/>
<path d="M100.012 27.8104V24.4832H102.016C103.541 24.4832 104.166 25.0715 104.166 26.156C104.166 27.2406 103.541 27.8104 102.016 27.8104H100.012ZM100.012 30.0531H102.126C105.122 30.0531 106.868 28.6377 106.868 26.1377C106.868 23.6377 105.122 22.2406 102.126 22.2406H97.2361V33.8215H100.012V30.0531Z" fill="#1B1C20"/>
<path d="M107.916 22.2406V33.8215H110.563V22.2406H107.916Z" fill="#1B1C20"/>
<path d="M117.093 30.3656C117.093 31.5237 116.321 32.259 115.347 32.259C114.777 32.259 114.41 31.9649 114.41 31.4869C114.41 30.8435 114.924 30.6413 115.752 30.4759L117.093 30.2002V30.3656ZM119.704 28.6193C119.704 26.395 118.178 25.4391 116.046 25.4391C113.711 25.4391 112.406 26.6524 112.13 28.3987L114.593 28.5825C114.741 27.9024 115.127 27.4244 115.899 27.4244C116.707 27.4244 117.093 27.884 117.093 28.656V28.8031L114.814 29.2075C113.013 29.5568 111.836 30.2185 111.836 31.781C111.836 33.1781 112.866 34.0053 114.502 34.0053C115.77 34.0053 116.781 33.509 117.241 32.5715C117.48 33.4906 118.196 34.0053 119.171 34.0053C119.98 34.0053 120.494 33.7663 120.899 33.4722V32.0568C120.66 32.1671 120.457 32.2038 120.218 32.2038C119.888 32.2038 119.704 32.02 119.704 31.5972V28.6193Z" fill="#1B1C20"/>
<path d="M125.294 36.7994L129.982 25.6597H127.371L125.368 30.7516H125.294L123.327 25.6597H120.533L123.879 33.895L122.684 36.7994H125.294Z" fill="#1B1C20"/>
<defs>
<linearGradient id="paint0_linear_10723_6746" x1="18.1376" y1="13.0881" x2="18.1376" y2="37.4509" gradientUnits="userSpaceOnUse">
<stop stop-color="#257CB0"/>
<stop offset="0.2863" stop-color="#4A93B5"/>
<stop offset="0.767" stop-color="#78BCBB"/>
<stop offset="1" stop-color="#89CFBD"/>
</linearGradient>
<linearGradient id="paint1_linear_10723_6746" x1="11.9989" y1="19.1358" x2="27.574" y2="19.1358" gradientUnits="userSpaceOnUse">
<stop stop-color="#52C1AD"/>
<stop offset="1" stop-color="#DEE89A"/>
</linearGradient>
<linearGradient id="paint2_linear_10723_6746" x1="19.7863" y1="25.2702" x2="19.7863" y2="37.5401" gradientUnits="userSpaceOnUse">
<stop stop-color="#EC413D"/>
<stop offset="0.1668" stop-color="#DA4452"/>
<stop offset="0.5748" stop-color="#B0487A"/>
<stop offset="0.8619" stop-color="#954A92"/>
<stop offset="1" stop-color="#8A4A9D"/>
</linearGradient>
<linearGradient id="paint3_linear_10723_6746" x1="28.755" y1="21.9976" x2="28.755" y2="28.5411" gradientUnits="userSpaceOnUse">
<stop stop-color="#F58879"/>
<stop offset="0.1194" stop-color="#F69079"/>
<stop offset="0.7128" stop-color="#FCB877"/>
<stop offset="1" stop-color="#FEC874"/>
</linearGradient>
</defs>
</svg>
