<svg width="179" height="62" viewBox="0 0 179 62" fill="none" xmlns="http://www.w3.org/2000/svg">
<rect x="0.314147" y="1.06637" width="178.173" height="60.3717" rx="12.2517" fill="white"/>
<path d="M49.1069 38.4578C48.3834 40.0631 48.0374 40.7791 47.1042 42.1981C45.804 44.1785 43.9691 46.6467 41.699 46.6676C39.6806 46.686 39.1616 45.3535 36.4223 45.3693C33.6831 45.385 33.1116 46.6912 31.0932 46.6729C28.8232 46.6519 27.0852 44.425 25.785 42.4421C22.1467 36.9024 21.7692 30.4001 24.0104 26.9457C25.6042 24.488 28.118 23.0506 30.4824 23.0506C32.8888 23.0506 34.4039 24.3726 36.3935 24.3726C38.3254 24.3726 39.5024 23.0506 42.2836 23.0506C44.3885 23.0506 46.6166 24.1969 48.2052 26.1798C43.0018 29.0309 43.8485 36.4696 49.1069 38.4578Z" fill="#1B1C20"/>
<path d="M40.1714 20.8385C41.1832 19.5401 41.9512 17.7041 41.6708 15.8313C40.0193 15.9441 38.0874 16.9959 36.9576 18.3677C35.9327 19.6136 35.0886 21.4575 35.4163 23.2516C37.2224 23.3067 39.0888 22.2286 40.1714 20.8385Z" fill="#1B1C20"/>
<path d="M58.929 24.0268C60.0587 24.0268 61.0848 23.5196 61.4076 22.5973V23.8885H62.3183V20.3032H59.1941V21.0871H61.4076C61.2807 22.3322 60.4046 23.1853 59.0442 23.1853C57.4764 23.1853 56.4158 22.067 56.4158 20.2686C56.4158 18.4702 57.4649 17.3404 58.952 17.3404C60.4161 17.3404 61.2692 18.2166 61.3499 19.5423L62.3068 19.4847C62.18 17.6286 60.9925 16.4873 58.9405 16.4873C56.9346 16.4873 55.3898 18.0206 55.3898 20.2571C55.3898 22.5166 56.8769 24.0268 58.929 24.0268Z" fill="#1B1C20"/>
<path d="M67.4424 22.1016C67.2349 22.874 66.7391 23.2775 65.8976 23.2775C64.9984 23.2775 64.2951 22.5858 64.249 21.6059H68.2609V21.2254C68.2609 19.8536 67.4424 18.7123 65.8399 18.7123C64.3874 18.7123 63.2922 19.8536 63.2922 21.4445C63.2922 23.0123 64.3874 24.0268 65.886 24.0268C67.1426 24.0268 67.9842 23.3351 68.2378 22.1938L67.4424 22.1016ZM64.2721 20.9834C64.3874 20.1533 64.9292 19.4386 65.8399 19.4386C66.7968 19.4386 67.2464 20.1764 67.281 20.9834H64.2721Z" fill="#1B1C20"/>
<path d="M69.4282 22.7126C69.4282 23.6925 69.9354 24.0268 70.6502 24.0268C71.2036 24.0268 71.5725 23.877 71.9414 23.6003V22.9547C71.6532 23.1161 71.3188 23.2544 70.9961 23.2544C70.558 23.2544 70.3735 23.0469 70.3735 22.5973V19.5423H71.7915V18.8506H70.3735V17.4557H69.8317L69.6818 18.1589C69.5665 18.6431 69.4628 18.8737 68.9901 18.9659L68.6673 19.0235V19.5423H69.4282V22.7126Z" fill="#1B1C20"/>
<path d="M74.8506 18.8506V23.8885H75.8074V18.8506H74.8506ZM74.8275 17.7093H75.8189V16.6256H74.8275V17.7093Z" fill="#1B1C20"/>
<path d="M77.2864 22.7126C77.2864 23.6925 77.7936 24.0268 78.5084 24.0268C79.0617 24.0268 79.4306 23.877 79.7996 23.6003V22.9547C79.5113 23.1161 79.177 23.2544 78.8542 23.2544C78.4162 23.2544 78.2317 23.0469 78.2317 22.5973V19.5423H79.6497V18.8506H78.2317V17.4557H77.6899L77.54 18.1589C77.4247 18.6431 77.321 18.8737 76.8483 18.9659L76.5255 19.0235V19.5423H77.2864V22.7126Z" fill="#1B1C20"/>
<path d="M83.3659 21.3753C83.3659 20.2455 83.9307 19.4616 84.9452 19.4616C85.9713 19.4616 86.5477 20.2455 86.5477 21.3753C86.5477 22.4936 85.9713 23.289 84.9452 23.289C83.9307 23.289 83.3659 22.4936 83.3659 21.3753ZM87.5276 21.3753C87.5276 19.8075 86.4324 18.7123 84.9452 18.7123C83.4696 18.7123 82.3859 19.8075 82.3859 21.3753C82.3859 22.9432 83.4696 24.0268 84.9452 24.0268C86.4324 24.0268 87.5276 22.9432 87.5276 21.3753Z" fill="#1B1C20"/>
<path d="M89.4748 20.9949C89.4748 20.0726 90.0743 19.4731 90.8351 19.4731C91.6306 19.4731 92.0341 20.0034 92.0341 20.845V23.8885H92.9909V20.7643C92.9909 19.5884 92.4606 18.7123 91.1464 18.7123C90.397 18.7123 89.7169 19.1388 89.4748 19.7498V18.8506H88.5179V23.8885H89.4748V20.9949Z" fill="#1B1C20"/>
<path d="M61.2976 27.4496L55.3898 42.2192H58.9532L60.1957 39.0309H66.1505L67.4164 42.2192H71.2143L65.2596 27.4496H61.2976ZM63.1262 31.5054H63.22L65.1189 36.3583H61.2273L63.1262 31.5054Z" fill="#1B1C20"/>
<path d="M75.7317 36.8975C75.7317 35.233 76.6928 34.178 78.0995 34.178C79.6937 34.178 80.4673 35.3267 80.4673 37.0147C80.4673 38.7261 79.6937 39.8748 78.0995 39.8748C76.6928 39.8748 75.7317 38.8199 75.7317 37.1319V36.8975ZM75.7317 40.3672C76.2474 41.5862 77.4431 42.5005 79.2482 42.5005C82.2959 42.5005 83.8901 40.0858 83.8901 37.0147C83.8901 33.967 82.2959 31.5288 79.2482 31.5288C77.4431 31.5288 76.2474 32.4432 75.7317 33.6857V31.8102H72.3557V46.0171H75.7317V40.3672Z" fill="#1B1C20"/>
<path d="M88.873 36.8975C88.873 35.233 89.8342 34.178 91.2408 34.178C92.835 34.178 93.6086 35.3267 93.6086 37.0147C93.6086 38.7261 92.835 39.8748 91.2408 39.8748C89.8342 39.8748 88.873 38.8199 88.873 37.1319V36.8975ZM88.873 40.3672C89.3888 41.5862 90.5844 42.5005 92.3896 42.5005C95.4373 42.5005 97.0314 40.0858 97.0314 37.0147C97.0314 33.967 95.4373 31.5288 92.3896 31.5288C90.5844 31.5288 89.3888 32.4432 88.873 33.6857V31.8102H85.4971V46.0171H88.873V40.3672Z" fill="#1B1C20"/>
<path d="M102.218 36.9678C102.218 40.5547 105.031 42.5005 108.97 42.5005C112.346 42.5005 114.995 40.9298 114.995 37.8821C114.995 35.4674 113.612 33.967 110.587 33.4278L107.821 32.9355C106.743 32.7245 106.086 32.4197 106.086 31.5757C106.086 30.5677 106.93 29.9581 108.431 29.9581C110.142 29.9581 111.338 30.8021 111.431 32.5369L114.714 32.4432C114.643 29.161 112.463 27.1683 108.454 27.1683C104.867 27.1683 102.593 28.9735 102.593 31.8805C102.593 34.389 104.258 35.7018 106.602 36.1473L109.368 36.6396C110.658 36.8975 111.525 37.1319 111.525 38.1166C111.525 39.1012 110.541 39.7107 108.97 39.7107C107.141 39.7107 105.617 38.8902 105.477 36.8506L102.218 36.9678Z" fill="#1B1C20"/>
<path d="M117.192 39.4294C117.192 41.7738 118.715 42.5005 120.403 42.5005C121.763 42.5005 122.654 42.1723 123.428 41.5862V39.3591C122.795 39.6404 122.255 39.7811 121.74 39.7811C120.943 39.7811 120.521 39.406 120.521 38.5151V34.178H123.287V31.8102H120.521V28.9266H118.434L118.082 30.3098C117.825 31.271 117.52 31.8102 116.488 31.9977L115.738 32.1149V34.178H117.192V39.4294Z" fill="#1B1C20"/>
<path d="M127.758 37.0147C127.758 35.2799 128.438 34.0842 129.938 34.0842C131.415 34.0842 132.142 35.2799 132.142 37.0147C132.142 38.7495 131.415 39.9452 129.938 39.9452C128.438 39.9452 127.758 38.7495 127.758 37.0147ZM135.565 37.0147C135.565 33.8029 133.267 31.5288 129.938 31.5288C126.609 31.5288 124.335 33.8029 124.335 37.0147C124.335 40.2499 126.609 42.5005 129.938 42.5005C133.267 42.5005 135.565 40.2499 135.565 37.0147Z" fill="#1B1C20"/>
<path d="M144.905 31.9508C144.624 31.7164 144.085 31.5288 143.452 31.5288C142.045 31.5288 140.967 32.5369 140.568 33.7091V31.8102H137.192V42.2192H140.568V37.296C140.568 35.4908 141.506 34.6938 142.913 34.6938C143.64 34.6938 144.155 34.811 144.694 35.1157L144.905 31.9508Z" fill="#1B1C20"/>
<path d="M153.393 38.5385C153.018 39.4997 152.291 39.9452 151.119 39.9452C149.806 39.9452 148.775 39.1481 148.681 37.7649H156.183V36.7334C156.183 33.8967 154.378 31.5288 150.932 31.5288C147.743 31.5288 145.352 33.8967 145.352 37.1788C145.352 40.4844 147.696 42.5005 151.002 42.5005C153.721 42.5005 155.574 41.1642 156.113 38.7964L153.393 38.5385ZM148.728 35.9597C148.915 34.8579 149.548 33.9904 150.908 33.9904C152.198 33.9904 152.854 34.9282 152.924 35.9597H148.728Z" fill="#1B1C20"/>
<rect x="0.314147" y="1.06637" width="178.173" height="60.3717" rx="12.2517" stroke="#1B1C20" stroke-width="0.628294"/>
</svg>
