<svg width="83" height="19" viewBox="0 0 83 19" fill="none" xmlns="http://www.w3.org/2000/svg">
<g clip-path="url(#clip0_10723_6896)">
<path fill-rule="evenodd" clip-rule="evenodd" d="M4.54571 1.05113C3.85737 1.36114 2.897 2.35576 2.64375 3.0207C2.5235 3.33666 2.45044 5.52439 2.45044 8.80796C2.45044 14.8358 2.52405 15.2614 3.78904 16.5478C5.25446 18.0381 5.21565 18.0311 11.9247 18.0311C17.8264 18.0311 17.8481 18.0296 18.4386 17.6124C18.7646 17.3822 19.2565 16.9013 19.5318 16.5439L20.0325 15.8939V10.1055C20.0325 3.62465 20.0263 3.58929 18.666 2.24208C17.317 0.906056 17.2472 0.893605 10.8315 0.84687C6.30173 0.813848 4.97715 0.856975 4.54571 1.05113ZM7.38197 2.65097C8.09529 3.12698 8.56295 4.16852 8.38278 4.87947C8.31483 5.14761 7.98543 5.63825 7.65053 5.9699C7.14348 6.47207 6.90935 6.57169 6.24926 6.56646C5.29582 6.5587 4.7341 6.27649 4.26257 5.56823C3.79415 4.8645 3.81601 4.05465 4.32343 3.30887C5.08446 2.19047 6.30027 1.929 7.38197 2.65097ZM11.0137 2.40051C11.0137 2.48748 10.8995 2.65259 10.7601 2.76736C10.6205 2.88194 10.403 3.22298 10.2767 3.52486L10.047 4.07396L9.82616 3.4738C9.70483 3.14376 9.54446 2.73163 9.47015 2.55786C9.35265 2.2834 9.44484 2.24208 10.1743 2.24208C10.636 2.24208 11.0137 2.31335 11.0137 2.40051ZM16.3902 2.57861C19.0335 3.76793 19.3888 7.18521 17.0399 8.82833C16.3519 9.3096 16.1194 9.36968 14.9452 9.36968C13.7884 9.36968 13.531 9.30544 12.8718 8.85308C12.0619 8.29727 11.1952 6.84203 11.197 6.04118C11.2028 3.38574 14.0156 1.51019 16.3902 2.57861ZM48.9107 10.4524V15.9559H49.7223H50.5339L50.5877 14.7524C50.6174 14.0903 50.7236 13.5268 50.8239 13.5003C50.924 13.4736 51.498 14.0084 52.0992 14.6891L53.1924 15.9263L54.3312 15.9411C54.9575 15.9493 55.467 15.895 55.4633 15.8206C55.4596 15.7463 54.727 14.9139 53.835 13.971L52.2131 12.2568L53.7922 10.6779L55.3711 9.099H54.1952H53.0193L51.7849 10.3121L50.5505 11.5253V8.23703V4.94876H49.7306H48.9107V10.4524ZM63.1219 10.4524V15.9559H63.942C64.5372 15.9559 64.7622 15.8842 64.7622 15.6941C64.7622 15.4789 64.8994 15.4942 65.5362 15.7804C69.0012 17.338 72.0555 13.311 69.8202 10.1324C69 8.96586 66.6235 8.51096 65.3539 9.27748L64.7622 9.63512V7.29186V4.94876H63.942H63.1219V10.4524ZM71.5032 10.4424V15.9559H72.4172H73.3307L73.2823 10.4975L73.234 5.03898L72.3688 4.98395L71.5032 4.92891V10.4424ZM25.4073 10.9035V15.9559L27.6392 15.9549C30.2277 15.9538 31.0091 15.7827 31.8777 15.0274C33.1385 13.9312 33.1133 12.1283 31.821 10.956C31.461 10.6294 31.2657 10.3622 31.3868 10.3622C31.7791 10.3622 32.3294 9.22517 32.3301 8.41331C32.331 7.36206 31.9183 6.64785 31.0589 6.21371C30.4445 5.90332 29.9855 5.85099 27.8743 5.85099H25.4073V10.9035ZM10.1811 8.04521C10.4364 8.55191 10.4334 8.58296 10.143 8.46636C9.63249 8.26121 8.95417 8.05405 8.39027 7.9308L7.86208 7.81549L8.48409 7.39688C8.82609 7.16665 9.2271 6.75428 9.3752 6.4804L9.6443 5.98236L9.77497 6.74021C9.84675 7.15708 10.0295 7.74439 10.1811 8.04521ZM30.1663 7.81785C31.0457 8.89346 30.223 9.8208 28.3889 9.8208H27.2293V8.53729V7.25378L28.5265 7.32651C29.6135 7.38731 29.8795 7.46708 30.1663 7.81785ZM5.0923 8.02896C5.60792 8.21121 5.61813 8.23326 5.2745 8.41748C5.07408 8.52486 4.68454 8.76825 4.40906 8.95843L3.90802 9.30398V8.38806C3.90802 7.56647 3.941 7.4907 4.22687 7.65383C4.40232 7.75395 4.79168 7.9227 5.0923 8.02896ZM34.6538 9.40433C34.1777 9.6669 33.7884 9.93375 33.7884 9.99782C33.7884 10.0619 34.0329 10.3462 34.3319 10.6297C34.8477 11.1193 34.8927 11.1299 35.2177 10.8385C35.7415 10.3692 36.6296 10.175 37.2591 10.3922C37.7142 10.5495 38.1611 11.0074 38.1611 11.3169C38.1611 11.3587 37.5821 11.4463 36.8743 11.5114C35.3166 11.6548 34.5254 11.9602 34.0012 12.6203C33.5147 13.2326 33.4635 14.5913 33.9034 15.213C34.5451 16.1205 36.2814 16.4027 37.485 15.795C38.019 15.5252 38.1611 15.5063 38.1611 15.7048C38.1611 15.8821 38.402 15.9559 38.981 15.9559H39.8009L39.8005 13.3846C39.8003 10.426 39.5972 9.76489 38.5255 9.23473C37.5152 8.7349 35.7262 8.81336 34.6538 9.40433ZM43.3993 9.17966C43.1238 9.32203 42.8982 9.36208 42.8982 9.26882C42.8982 9.17533 42.4883 9.099 41.9873 9.099H41.0763V12.5275V15.9559H41.9873H42.8982V13.7406C42.8982 12.0013 42.961 11.4365 43.1899 11.1126C43.558 10.5924 44.2454 10.3278 44.8436 10.4766C45.5746 10.6583 45.8134 11.4954 45.8134 13.8751V15.9559H46.6333H47.4532V13.424C47.4532 10.533 47.2681 9.85326 46.3254 9.28418C45.605 8.84908 44.1403 8.79677 43.3993 9.17966ZM57.0186 9.1773C56.7179 9.31174 56.308 9.54619 56.1075 9.69812C55.7481 9.9706 55.7505 9.98213 56.2776 10.5283C56.7901 11.0598 56.83 11.0704 57.2572 10.7932C58.3592 10.0781 59.6097 10.1629 59.9843 10.9782C60.1733 11.388 60.153 11.3979 58.9048 11.5129C57.372 11.6539 56.5701 11.9616 56.0597 12.6043C55.4786 13.3359 55.3875 14.0454 55.7741 14.8289C56.3783 16.0538 58.1276 16.5034 59.5309 15.795C60.0647 15.5252 60.207 15.5063 60.207 15.7048C60.207 15.8816 60.4461 15.9559 61.0131 15.9559H61.8192L61.7173 13.2042C61.6032 10.1315 61.4608 9.66218 60.5063 9.21358C59.739 8.85308 57.7887 8.83266 57.0186 9.1773ZM76.2045 9.27709C74.7713 10.0474 74.0637 11.7117 74.4366 13.434C74.9344 15.7331 77.5405 16.808 79.8518 15.6676C80.9993 15.1012 81.3447 14.6042 80.8553 14.2239C80.0644 13.6092 79.9227 13.5921 79.4248 14.0492C79.1605 14.2917 78.7048 14.5421 78.4118 14.6059C77.7278 14.7547 76.5966 14.223 76.2934 13.6101L76.0701 13.1591L78.706 13.1091L81.3418 13.0593L81.3379 12.2068C81.3328 11.0987 80.8109 9.98483 80.043 9.44331C79.1875 8.83991 77.1793 8.7529 76.2045 9.27709ZM9.60971 10.0011C11.4944 11.28 11.8622 13.7233 10.4154 15.3551C8.88437 17.0821 6.40193 17.0823 4.87129 15.3558C3.29839 13.5815 3.81564 10.9067 5.93806 9.83936C7.01521 9.29768 8.68125 9.37097 9.60971 10.0011ZM18.6325 10.9623L18.5749 11.382L17.7854 11.0392L16.9958 10.6963L17.7854 10.1998L18.5749 9.70335L18.6325 10.1229C18.6642 10.3537 18.6642 10.7315 18.6325 10.9623ZM79.1318 10.6182C79.2252 10.6756 79.3877 10.9661 79.4923 11.264L79.683 11.8057H77.8538H76.0245L76.3693 11.2192C76.8908 10.3318 78.1986 10.0471 79.1318 10.6182ZM13.2001 10.7267C13.4506 10.8075 13.8955 10.9261 14.1889 10.9903L14.7223 11.1068L14.1889 11.4508C13.8955 11.6399 13.471 12.0589 13.2457 12.3815L12.8357 12.9685L12.8317 12.4322C12.8295 12.1372 12.6655 11.5423 12.4675 11.1097C12.137 10.3883 12.1335 10.3342 12.4259 10.4516C12.6012 10.522 12.9496 10.6456 13.2001 10.7267ZM67.5797 10.6185C68.3076 10.9197 68.7705 11.7005 68.7705 12.6267C68.7705 13.1352 68.6293 13.4252 68.1507 13.8989C67.0195 15.0194 65.3573 14.5878 64.9433 13.0658C64.6468 11.976 65.3067 10.734 66.3107 10.4919C66.9047 10.3486 66.934 10.3515 67.5797 10.6185ZM30.3931 11.8189C30.7635 12.1073 30.8732 12.3519 30.8732 12.8884C30.8732 13.9573 30.2758 14.3319 28.5712 14.3319H27.2293V12.8884V11.4448H28.5712C29.6529 11.4448 30.0061 11.5174 30.3931 11.8189ZM17.5874 12.6549C18.1499 12.984 18.666 13.8686 18.666 14.5036C18.666 15.542 17.477 16.6765 16.3885 16.6765C15.6281 16.6765 14.7085 16.0738 14.3579 15.3457C13.9367 14.4709 14.1464 13.5948 14.943 12.9021C15.6903 12.2522 16.7324 12.1547 17.5874 12.6549ZM38.083 13.3846C37.9157 14.0898 37.1652 14.6928 36.4549 14.6928C35.61 14.6928 35.1632 14.3224 35.3099 13.7437C35.451 13.1869 36.0815 12.9225 37.3154 12.9026C38.1904 12.8886 38.1992 12.894 38.083 13.3846ZM60.1013 13.3846C60.0394 13.6576 59.7874 14.0636 59.541 14.2868C58.7592 14.996 57.2918 14.7308 57.2918 13.8803C57.2918 13.2839 58.0476 12.9046 59.2542 12.8956C60.2082 12.8884 60.2132 12.8913 60.1013 13.3846ZM13.0321 16.2176C13.3623 16.5547 13.1879 16.6777 12.3802 16.6777C11.5388 16.6777 11.3679 16.5191 11.8139 16.1525C11.9535 16.0379 12.175 15.6875 12.3062 15.3739L12.5446 14.8037L12.7045 15.4249C12.7923 15.7667 12.9397 16.1232 13.0321 16.2176Z" fill="#6B7280"/>
</g>
<defs>
<clipPath id="clip0_10723_6896">
<rect width="79.3125" height="18" fill="white" transform="translate(2.04297 0.527954)"/>
</clipPath>
</defs>
</svg>
