<svg width="136" height="31" viewBox="0 0 136 31" fill="none" xmlns="http://www.w3.org/2000/svg">
<g clip-path="url(#clip0_10632_38589)">
<path fill-rule="evenodd" clip-rule="evenodd" d="M5.19016 0.939619C4.02141 1.46598 2.3908 3.15476 1.96079 4.28378C1.75662 4.82025 1.63257 8.53483 1.63257 14.1101C1.63257 24.3448 1.75755 25.0675 3.90541 27.2517C6.39356 29.7821 6.32767 29.7702 17.719 29.7702C27.7397 29.7702 27.7766 29.7677 28.7791 29.0593C29.3326 28.6684 30.1679 27.8519 30.6353 27.245L31.4854 26.1414V16.3132C31.4854 5.30924 31.4749 5.24919 29.1653 2.96174C26.8748 0.693288 26.7563 0.672148 15.8629 0.592795C8.17173 0.536727 5.92271 0.609953 5.19016 0.939619ZM10.0059 3.65601C11.2171 4.46424 12.0111 6.23267 11.7052 7.43982C11.5898 7.8951 11.0305 8.72816 10.4619 9.29128C9.60096 10.1439 9.20344 10.3131 8.08264 10.3042C6.46378 10.291 5.51003 9.81184 4.70942 8.60928C3.91407 7.41439 3.95119 6.03935 4.81275 4.77307C6.10492 2.87411 8.16926 2.43016 10.0059 3.65601ZM16.1723 3.23075C16.1723 3.37842 15.9783 3.65876 15.7416 3.85362C15.5047 4.04817 15.1354 4.62723 14.9209 5.1398L14.5309 6.07213L14.1559 5.0531C13.9499 4.49273 13.6776 3.79295 13.5515 3.49791C13.3519 3.0319 13.5085 2.96174 14.7471 2.96174C15.531 2.96174 16.1723 3.08276 16.1723 3.23075ZM25.3011 3.53314C29.7892 5.5525 30.3924 11.3548 26.4042 14.1446C25.2361 14.9618 24.8413 15.0638 22.8476 15.0638C20.8835 15.0638 20.4464 14.9547 19.3271 14.1867C17.952 13.243 16.4804 10.7721 16.4835 9.41231C16.4934 4.90359 21.2693 1.71906 25.3011 3.53314ZM80.5183 16.9021V26.2467H81.8962H83.2744L83.3657 24.2032C83.4161 23.0791 83.5964 22.1222 83.7666 22.0772C83.9367 22.0319 84.9112 22.94 85.9321 24.0957L87.7882 26.1965L89.7217 26.2216C90.7852 26.2355 91.6502 26.1432 91.644 26.0169C91.6378 25.8908 90.3939 24.4774 88.8793 22.8765L86.1254 19.9659L88.8066 17.2851L91.4875 14.6042H89.4909H87.4943L85.3984 16.664L83.3025 18.7239V13.1407V7.55747H81.9104H80.5183V16.9021ZM104.648 16.9021V26.2467H106.04C107.051 26.2467 107.433 26.1249 107.433 25.8022C107.433 25.4367 107.666 25.4627 108.747 25.9486C114.63 28.5934 119.816 21.7559 116.021 16.3589C114.628 14.3782 110.593 13.6058 108.437 14.9073L107.433 15.5145V11.5358V7.55747H106.04H104.648V16.9021ZM118.878 16.8852V26.2467H120.43H121.981L121.899 16.9787L121.817 7.71066L120.348 7.61721L118.878 7.52377V16.8852ZM40.6114 17.6681V26.2467L44.4011 26.2449C48.796 26.2431 50.1228 25.9527 51.5976 24.6701C53.7383 22.8088 53.6956 19.7478 51.5014 17.7572C50.89 17.2027 50.5584 16.749 50.7642 16.749C51.4302 16.749 52.3645 14.8185 52.3657 13.44C52.3673 11.655 51.6665 10.4424 50.2074 9.70525C49.1642 9.17823 48.3849 9.08938 44.8001 9.08938H40.6114V17.6681ZM14.7586 12.815C15.192 13.6753 15.187 13.728 14.6939 13.5301C13.8271 13.1817 12.6754 12.83 11.7179 12.6207L10.8211 12.4249L11.8772 11.7142C12.4579 11.3232 13.1388 10.6231 13.3902 10.1581L13.8471 9.31243L14.069 10.5992C14.1909 11.307 14.5012 12.3042 14.7586 12.815ZM48.6917 12.4289C50.185 14.2552 48.788 15.8298 45.674 15.8298H43.705V13.6505V11.4712L45.9076 11.5947C47.7532 11.6979 48.2048 11.8334 48.6917 12.4289ZM6.11823 12.7874C6.99371 13.0968 7.01103 13.1343 6.42759 13.4471C6.08729 13.6294 5.42589 14.0426 4.95814 14.3656L4.10742 14.9523V13.3971C4.10742 12.0021 4.16341 11.8735 4.64879 12.1504C4.9467 12.3204 5.6078 12.607 6.11823 12.7874ZM56.3113 15.1226C55.5029 15.5685 54.8418 16.0216 54.8418 16.1303C54.8418 16.2391 55.2569 16.7219 55.7646 17.2033C56.6404 18.0345 56.7168 18.0525 57.2687 17.5578C58.1581 16.7609 59.6659 16.4312 60.7347 16.8C61.5075 17.067 62.2664 17.8445 62.2664 18.37C62.2664 18.4411 61.2832 18.5897 60.0813 18.7003C57.4366 18.9438 56.0931 19.4622 55.2031 20.583C54.3771 21.6228 54.2902 23.9296 55.037 24.9854C56.1265 26.5262 59.0747 27.0053 61.1183 25.9735C62.025 25.5154 62.2664 25.4832 62.2664 25.8203C62.2664 26.1214 62.6753 26.2467 63.6584 26.2467H65.0505L65.0499 21.8808C65.0496 16.8574 64.7047 15.7348 62.8851 14.8347C61.1696 13.986 58.1321 14.1192 56.3113 15.1226ZM71.1603 14.7412C70.6925 14.9829 70.3095 15.0509 70.3095 14.8926C70.3095 14.7338 69.6135 14.6042 68.7628 14.6042H67.2161V20.4255V26.2467H68.7628H70.3095V22.4853C70.3095 19.5321 70.416 18.5732 70.8049 18.0232C71.4298 17.1399 72.597 16.6907 73.6126 16.9432C74.8537 17.2517 75.2592 18.6731 75.2592 22.7136V26.2467H76.6514H78.0435V21.9476C78.0435 17.0391 77.7292 15.8849 76.1286 14.9186C74.9054 14.1799 72.4185 14.0911 71.1603 14.7412ZM94.2847 14.7372C93.7742 14.9654 93.0781 15.3635 92.7378 15.6215C92.1275 16.0841 92.1316 16.1037 93.0266 17.0311C93.8967 17.9334 93.9644 17.9515 94.6899 17.4808C96.561 16.2666 98.6842 16.4107 99.3202 17.795C99.6412 18.4907 99.6068 18.5075 97.4874 18.7028C94.8849 18.9423 93.5233 19.4647 92.6566 20.556C91.67 21.7981 91.5153 23.0028 92.1718 24.3331C93.1976 26.4128 96.1677 27.1763 98.5504 25.9735C99.4568 25.5154 99.6985 25.4832 99.6985 25.8203C99.6985 26.1206 100.104 26.2467 101.067 26.2467H102.436L102.263 21.5745C102.069 16.3574 101.827 15.5605 100.207 14.7988C98.9038 14.1867 95.5923 14.152 94.2847 14.7372ZM126.861 14.9066C124.427 16.2146 123.226 19.0404 123.859 21.9647C124.704 25.8684 129.129 27.6935 133.054 25.7572C135.002 24.7954 135.588 23.9517 134.757 23.3058C133.415 22.2622 133.174 22.2332 132.329 23.0092C131.88 23.421 131.106 23.8462 130.609 23.9544C129.447 24.2072 127.527 23.3043 127.012 22.2638L126.633 21.4979L131.108 21.413L135.584 21.3285L135.577 19.881C135.568 17.9995 134.682 16.1083 133.378 15.1888C131.926 14.1643 128.516 14.0166 126.861 14.9066ZM13.7884 16.1359C16.9884 18.3074 17.6129 22.4559 15.1564 25.2265C12.5568 28.1589 8.34188 28.1592 5.74298 25.2278C3.07231 22.2151 3.95057 17.6736 7.55426 15.8613C9.38317 14.9416 12.212 15.066 13.7884 16.1359ZM29.1083 17.7679L29.0105 18.4806L27.6701 17.8985L26.3294 17.3164L27.6701 16.4732L29.0105 15.6304L29.1083 16.3427C29.1621 16.7345 29.1621 17.3761 29.1083 17.7679ZM131.831 17.1837C131.99 17.2811 132.266 17.7744 132.443 18.2802L132.767 19.2H129.661H126.555L127.141 18.2042C128.026 16.6975 130.247 16.214 131.831 17.1837ZM19.8846 17.3678C20.31 17.5051 21.0653 17.7064 21.5634 17.8155L22.4692 18.0134L21.5634 18.5973C21.0653 18.9184 20.3445 19.6298 19.9619 20.1777L19.2659 21.1743L19.259 20.2637C19.2554 19.7628 18.9769 18.7527 18.6407 18.0182C18.0795 16.7934 18.0736 16.7015 18.5701 16.9009C18.8677 17.0204 19.4592 17.2302 19.8846 17.3678ZM112.217 17.1843C113.453 17.6956 114.239 19.0214 114.239 20.594C114.239 21.4574 113.999 21.9497 113.186 22.754C111.265 24.6566 108.443 23.9238 107.74 21.3394C107.237 19.4892 108.357 17.3804 110.062 16.9692C111.071 16.7259 111.12 16.7308 112.217 17.1843ZM49.0769 19.2223C49.7058 19.712 49.8921 20.1274 49.8921 21.0383C49.8921 22.8532 48.8777 23.4893 45.9834 23.4893H43.705V21.0383V18.5872H45.9834C47.82 18.5872 48.4198 18.7104 49.0769 19.2223ZM27.3339 20.6418C28.2889 21.2007 29.1653 22.7025 29.1653 23.7807C29.1653 25.5439 27.1464 27.4702 25.2983 27.4702C24.0071 27.4702 22.4457 26.4468 21.8505 25.2106C21.1353 23.7252 21.4914 22.2378 22.8439 21.0615C24.1128 19.958 25.8821 19.7925 27.3339 20.6418ZM62.1336 21.8808C61.8497 23.0782 60.5754 24.1021 59.3692 24.1021C57.9347 24.1021 57.1762 23.4731 57.4253 22.4905C57.6647 21.5451 58.7353 21.0962 60.8303 21.0625C62.3161 21.0386 62.331 21.0478 62.1336 21.8808ZM99.5189 21.8808C99.4138 22.3444 98.986 23.0337 98.5676 23.4127C97.2401 24.6168 94.7487 24.1665 94.7487 22.7225C94.7487 21.7098 96.0319 21.0658 98.0806 21.0505C99.7004 21.0383 99.709 21.0432 99.5189 21.8808ZM19.5993 26.691C20.1599 27.2633 19.8639 27.4723 18.4925 27.4723C17.0639 27.4723 16.7737 27.2029 17.531 26.5804C17.7679 26.3859 18.1441 25.7909 18.3669 25.2584L18.7715 24.2902L19.0432 25.345C19.1922 25.9253 19.4425 26.5308 19.5993 26.691Z" fill="#6B7280"/>
</g>
<defs>
<clipPath id="clip0_10632_38589">
<rect width="134.666" height="30.5625" fill="white" transform="translate(0.94043 0.0513306)"/>
</clipPath>
</defs>
</svg>
