<svg width="126" height="30" viewBox="0 0 126 30" fill="none" xmlns="http://www.w3.org/2000/svg">
<path fill-rule="evenodd" clip-rule="evenodd" d="M41.8387 23.6053C42.3868 24.8477 43.1176 25.9805 44.0677 26.9305C45.0543 27.8806 46.1505 28.6479 47.3929 29.1595C48.6718 29.7076 50.0603 29.9634 51.4489 29.9634C52.8374 29.9634 54.226 29.7076 55.5049 29.1595C56.7473 28.6479 57.8435 27.8806 58.8301 26.9305C59.7802 25.9805 60.511 24.8477 61.0591 23.6053C61.6072 22.3264 61.863 20.9744 61.863 19.5493V1.82703L56.3819 0V10.3776C56.0896 10.2314 55.7972 10.0852 55.5049 9.97562C54.226 9.42751 52.874 9.17172 51.4489 9.17172C50.0603 9.17172 48.6718 9.42751 47.3929 9.97562C46.1505 10.4872 45.0543 11.2545 44.0677 12.2046C43.1176 13.1547 42.3868 14.2874 41.8387 15.5298C41.3271 16.8087 41.0348 18.1607 41.0348 19.5493C41.0348 20.9744 41.3271 22.3264 41.8387 23.6053ZM51.4489 14.6163C54.1529 14.6163 56.3819 16.8453 56.3819 19.5493C56.3819 22.2898 54.1529 24.4823 51.4489 24.4823C48.7449 24.4823 46.5159 22.2898 46.5159 19.5493C46.5159 16.8453 48.7449 14.6163 51.4489 14.6163ZM34.0728 10.3044L34.0363 9.13511H39.5174V29.7076H34.0363L34.0728 28.8671C32.6112 29.5979 31.0034 29.9999 29.3591 29.9999C27.9705 29.9999 26.582 29.7075 25.3031 29.196C24.0607 28.6479 22.9644 27.9171 21.9778 26.967C21.0278 25.9804 20.297 24.8842 19.7489 23.6418C19.2373 22.3629 18.945 20.9743 18.945 19.5858C18.945 18.1972 19.2373 16.8087 19.7489 15.5297C20.297 14.2874 21.0278 13.1546 21.9778 12.2045C22.9644 11.2545 24.0607 10.5237 25.3031 9.97555C26.582 9.42744 27.9705 9.17165 29.3591 9.17165C31.0034 9.17165 32.6112 9.5736 34.0728 10.3044ZM29.3591 24.5188C30.2361 24.5188 31.113 24.263 31.8438 23.8245C32.6112 23.4225 33.1959 22.8013 33.6343 22.0705C34.0728 21.3032 34.2921 20.4627 34.2921 19.5858C34.2921 18.8549 34.1459 18.1607 33.8171 17.5029C33.4516 16.6625 32.8305 15.9317 32.0266 15.4567C31.2592 14.9085 30.3091 14.6528 29.3591 14.6528C26.6551 14.6528 24.4261 16.8818 24.4261 19.5858C24.4261 22.2898 26.6551 24.5188 29.3591 24.5188ZM19.0012 25.4687C17.028 28.3189 13.8124 29.9997 10.4141 29.9997C8.98902 29.9997 7.63701 29.7074 6.35809 29.1958C5.1157 28.6477 3.98294 27.9169 3.03288 26.9668C2.08282 25.9802 1.31547 24.884 0.8039 23.6416C0.255789 22.3627 0 20.9742 0 19.5856C0 18.1971 0.255789 16.8085 0.8039 15.5296C1.31547 14.2872 2.08282 13.191 3.03288 12.2044C3.98294 11.2543 5.1157 10.5235 6.35809 9.9754C7.63701 9.42729 8.98902 9.17151 10.4141 9.17151C12.095 9.17151 13.7759 9.57345 15.274 10.3773C16.6991 11.1447 17.978 12.2409 18.9281 13.5929L14.4336 16.7354C13.5201 15.42 11.9854 14.6526 10.4141 14.6526C7.67355 14.6526 5.48111 16.8451 5.48111 19.5856C5.48111 22.2896 7.67355 24.5186 10.4141 24.5186C12.0219 24.5186 13.5566 23.7147 14.4701 22.3627L19.0012 25.4687ZM77.4037 28.9767C76.0882 29.5614 74.6997 29.8537 73.2746 29.8537C70.4975 29.8537 67.9396 28.7575 65.9664 26.8208C64.0298 24.8842 62.9701 22.2898 62.9701 19.5492C62.9701 16.8087 64.0298 14.2143 65.9664 12.2776C67.9396 10.341 70.4975 9.24475 73.2746 9.24475C76.0151 9.24475 78.6095 10.341 80.5462 12.2776C82.4828 14.2143 83.5425 16.8087 83.5425 19.5492V22.2167H69.0358C69.9128 23.6053 71.4841 24.5553 73.2746 24.5553C74.6631 24.5553 75.942 24.0072 76.8921 22.9841L80.7654 26.6381C79.8153 27.6247 78.6826 28.4286 77.4037 28.9767ZM73.2746 14.5432C71.4841 14.5432 69.9128 15.4932 69.0358 16.9183H77.5133C76.5998 15.4932 75.0285 14.5432 73.2746 14.5432ZM100.524 12.3872C98.7701 10.6698 96.468 9.71976 94.0198 9.71976C92.7043 9.71976 91.462 9.97555 90.3292 10.4871V9.13511H84.8481V18.0876C84.8115 18.3799 84.8115 18.6357 84.8115 18.928H84.8481V29.7075H90.3292V18.3799C90.585 16.5894 92.1197 15.2009 94.0198 15.2009C96.0661 15.2009 97.747 16.8818 97.747 18.928V29.7075H103.228V18.928C103.228 16.4433 102.241 14.1412 100.524 12.3872ZM119.788 10.3044L119.751 9.13511H125.233V29.7076H119.751L119.788 28.8671C118.326 29.5979 116.719 29.9999 115.074 29.9999C113.686 29.9999 112.297 29.7075 111.018 29.196C109.776 28.6479 108.68 27.9171 107.693 26.967C106.743 25.9804 106.012 24.8842 105.464 23.6418C104.952 22.3629 104.66 20.9743 104.66 19.5858C104.66 18.1972 104.952 16.8087 105.464 15.5297C106.012 14.2874 106.743 13.1546 107.693 12.2045C108.68 11.2545 109.776 10.5237 111.018 9.97555C112.297 9.42744 113.686 9.17165 115.074 9.17165C116.719 9.17165 118.326 9.5736 119.788 10.3044ZM115.074 24.5188C115.951 24.5188 116.828 24.263 117.559 23.8245C118.326 23.4225 118.911 22.8013 119.35 22.0705C119.788 21.3032 120.007 20.4627 120.007 19.5858C120.007 18.8549 119.861 18.1607 119.532 17.5029C119.167 16.6625 118.546 15.9317 117.742 15.4567C116.974 14.9085 116.024 14.6528 115.074 14.6528C112.37 14.6528 110.141 16.8818 110.141 19.5858C110.141 22.2898 112.37 24.5188 115.074 24.5188Z" fill="white"/>
</svg>
