<svg width="180" height="62" viewBox="0 0 180 62" fill="none" xmlns="http://www.w3.org/2000/svg">
<rect x="1.1159" y="1.06903" width="177.784" height="60.3664" rx="12.2517" fill="white"/>
<path d="M15.8809 15.946V31.2526V46.5593L31.3076 31.2526L15.8809 15.946Z" fill="url(#paint0_linear_10632_38443)"/>
<path d="M35.4525 27.1417L29.223 23.5453L15.8809 15.8339V15.9474L31.3076 31.254L35.4525 27.1417Z" fill="url(#paint1_linear_10632_38443)"/>
<path d="M15.8809 46.5598V46.6705L29.223 38.9618L35.4498 35.3628L31.3076 31.2531L15.8809 46.5598Z" fill="url(#paint2_linear_10632_38443)"/>
<path d="M35.4494 27.14L31.3044 31.2524L35.4467 35.3621L42.5646 31.2524L35.4494 27.14Z" fill="url(#paint3_linear_10632_38443)"/>
<path d="M52.3869 24.0269C53.5166 24.0269 54.5426 23.5196 54.8654 22.5973V23.8885H55.7762V20.3032H52.652V21.0871H54.8654C54.7386 22.3322 53.8625 23.1853 52.5021 23.1853C50.9343 23.1853 49.8737 22.067 49.8737 20.2686C49.8737 18.4702 50.9228 17.3404 52.4099 17.3404C53.874 17.3404 54.7271 18.2166 54.8078 19.5423L55.7646 19.4847C55.6378 17.6286 54.4504 16.4873 52.3984 16.4873C50.3925 16.4873 48.8477 18.0206 48.8477 20.2571C48.8477 22.5166 50.3348 24.0269 52.3869 24.0269Z" fill="#1B1C20"/>
<path d="M60.9002 22.1016C60.6927 22.874 60.197 23.2775 59.3555 23.2775C58.4562 23.2775 57.753 22.5858 57.7069 21.6059H61.7188V21.2255C61.7188 19.8536 60.9002 18.7123 59.2978 18.7123C57.8452 18.7123 56.7501 19.8536 56.7501 21.4445C56.7501 23.0124 57.8452 24.0269 59.3439 24.0269C60.6005 24.0269 61.4421 23.3352 61.6957 22.1939L60.9002 22.1016ZM57.73 20.9834C57.8452 20.1533 58.3871 19.4386 59.2978 19.4386C60.2547 19.4386 60.7043 20.1764 60.7388 20.9834H57.73Z" fill="#1B1C20"/>
<path d="M62.8861 22.7126C62.8861 23.6925 63.3933 24.0269 64.1081 24.0269C64.6615 24.0269 65.0304 23.877 65.3993 23.6003V22.9547C65.1111 23.1161 64.7767 23.2545 64.4539 23.2545C64.0159 23.2545 63.8314 23.047 63.8314 22.5973V19.5423H65.2494V18.8506H63.8314V17.4557H63.2896L63.1397 18.1589C63.0244 18.6431 62.9207 18.8737 62.448 18.9659L62.1252 19.0236V19.5423H62.8861V22.7126Z" fill="#1B1C20"/>
<path d="M68.3085 18.8506V23.8885H69.2653V18.8506H68.3085ZM68.2854 17.7093H69.2768V16.6257H68.2854V17.7093Z" fill="#1B1C20"/>
<path d="M70.7443 22.7126C70.7443 23.6925 71.2515 24.0269 71.9663 24.0269C72.5196 24.0269 72.8885 23.877 73.2574 23.6003V22.9547C72.9692 23.1161 72.6349 23.2545 72.3121 23.2545C71.874 23.2545 71.6896 23.047 71.6896 22.5973V19.5423H73.1076V18.8506H71.6896V17.4557H71.1478L70.9979 18.1589C70.8826 18.6431 70.7788 18.8737 70.3062 18.9659L69.9834 19.0236V19.5423H70.7443V22.7126Z" fill="#1B1C20"/>
<path d="M76.8237 21.3753C76.8237 20.2456 77.3886 19.4616 78.4031 19.4616C79.4291 19.4616 80.0056 20.2456 80.0056 21.3753C80.0056 22.4936 79.4291 23.289 78.4031 23.289C77.3886 23.289 76.8237 22.4936 76.8237 21.3753ZM80.9855 21.3753C80.9855 19.8075 79.8903 18.7123 78.4031 18.7123C76.9275 18.7123 75.8438 19.8075 75.8438 21.3753C75.8438 22.9432 76.9275 24.0269 78.4031 24.0269C79.8903 24.0269 80.9855 22.9432 80.9855 21.3753Z" fill="#1B1C20"/>
<path d="M82.9327 20.9949C82.9327 20.0726 83.5321 19.4732 84.293 19.4732C85.0885 19.4732 85.492 20.0035 85.492 20.845V23.8885H86.4488V20.7643C86.4488 19.5885 85.9185 18.7123 84.6043 18.7123C83.8549 18.7123 83.1748 19.1388 82.9327 19.7499V18.8506H81.9758V23.8885H82.9327V20.9949Z" fill="#1B1C20"/>
<path d="M55.916 42.2751C57.8563 42.2751 59.5194 41.6283 60.3048 40.1731V41.9979H63.3769V34.5369H56.5858V37.0778H60.0738C59.5656 38.51 58.2028 39.3184 56.6089 39.3184C53.9525 39.3184 52.4511 37.4936 52.4511 34.7217C52.4511 32.0191 53.9063 30.2636 56.3317 30.2636C58.4338 30.2636 59.6811 31.4417 59.8659 33.2665L63.2845 33.151C62.9612 29.4782 60.4896 27.1683 56.2624 27.1683C52.1046 27.1683 48.8477 30.2405 48.8477 34.7217C48.8477 39.226 51.8736 42.2751 55.916 42.2751Z" fill="#1B1C20"/>
<path d="M68.3032 36.8699C68.3032 35.1606 68.973 33.9825 70.4514 33.9825C71.9066 33.9825 72.6227 35.1606 72.6227 36.8699C72.6227 38.5793 71.9066 39.7573 70.4514 39.7573C68.973 39.7573 68.3032 38.5793 68.3032 36.8699ZM75.9951 36.8699C75.9951 33.7054 73.7314 31.4648 70.4514 31.4648C67.1713 31.4648 64.9307 33.7054 64.9307 36.8699C64.9307 40.0576 67.1713 42.2751 70.4514 42.2751C73.7314 42.2751 75.9951 40.0576 75.9951 36.8699Z" fill="#1B1C20"/>
<path d="M80.4617 36.8699C80.4617 35.1606 81.1316 33.9825 82.61 33.9825C84.0652 33.9825 84.7813 35.1606 84.7813 36.8699C84.7813 38.5793 84.0652 39.7573 82.61 39.7573C81.1316 39.7573 80.4617 38.5793 80.4617 36.8699ZM88.1537 36.8699C88.1537 33.7054 85.89 31.4648 82.61 31.4648C79.3299 31.4648 77.0893 33.7054 77.0893 36.8699C77.0893 40.0576 79.3299 42.2751 82.61 42.2751C85.89 42.2751 88.1537 40.0576 88.1537 36.8699Z" fill="#1B1C20"/>
<path d="M99.1821 34.9758C99.1821 34.4445 99.0435 33.9825 98.8125 33.5668C99.3207 33.4282 99.9212 33.3589 100.406 33.3589V30.7949C99.2976 30.7949 98.2119 31.4879 97.6113 32.3194C96.7567 31.765 95.5786 31.4648 94.3313 31.4648C91.5132 31.4648 89.5036 32.8045 89.5036 34.9758C89.5036 36.0846 90.0348 36.9854 90.9588 37.586C89.8963 37.9787 89.2495 38.7409 89.2495 39.688C89.2495 40.5658 89.7808 41.3511 90.7047 41.6514C89.5267 41.7669 88.7182 42.5061 88.7182 43.4531C88.7182 45.3704 91.1898 46.0171 94.0772 46.0171C97.3572 46.0171 100.406 44.8853 100.406 42.3213C100.406 40.6351 99.2283 39.4108 96.9415 39.4108H92.7374C92.0676 39.4108 91.7904 39.1105 91.7904 38.7178C91.7904 38.4638 91.9059 38.279 92.0676 38.1404C92.7374 38.3483 93.4997 38.4638 94.3313 38.4638C97.1493 38.4638 99.1821 37.124 99.1821 34.9758ZM91.5594 43.0605C91.5594 42.5292 91.9752 42.2751 92.5064 42.2751H96.133C96.8953 42.2751 97.311 42.4599 97.311 43.0143C97.311 43.7765 95.9482 44.1692 94.1003 44.1692C92.5988 44.1692 91.5594 43.8689 91.5594 43.0605ZM95.7403 34.9758C95.7403 36.0153 95.1628 36.6158 94.3544 36.6158C93.569 36.6158 92.9915 36.0153 92.9915 34.9758C92.9915 33.9594 93.569 33.382 94.3544 33.382C95.1628 33.382 95.7403 33.9594 95.7403 34.9758Z" fill="#1B1C20"/>
<path d="M101.51 27.4455V41.9979H104.836V27.4455H101.51Z" fill="#1B1C20"/>
<path d="M114.36 38.3714C113.99 39.3184 113.274 39.7573 112.119 39.7573C110.826 39.7573 109.809 38.9719 109.717 37.6091H117.109V36.5927C117.109 33.7978 115.33 31.4648 111.934 31.4648C108.793 31.4648 106.437 33.7978 106.437 37.0316C106.437 40.2886 108.747 42.2751 112.004 42.2751C114.683 42.2751 116.508 40.9585 117.039 38.6255L114.36 38.3714ZM109.763 35.8305C109.948 34.7448 110.572 33.8902 111.911 33.8902C113.182 33.8902 113.828 34.8141 113.898 35.8305H109.763Z" fill="#1B1C20"/>
<path d="M126.475 34.4445V30.2636H128.993C130.91 30.2636 131.696 31.0028 131.696 32.3656C131.696 33.7285 130.91 34.4445 128.993 34.4445H126.475ZM126.475 37.2626H129.132C132.897 37.2626 135.091 35.484 135.091 32.3425C135.091 29.201 132.897 27.4455 129.132 27.4455H122.987V41.9979H126.475V37.2626Z" fill="#1B1C20"/>
<path d="M136.407 27.4455V41.9979H139.733V27.4455H136.407Z" fill="#1B1C20"/>
<path d="M147.94 37.6553C147.94 39.1105 146.97 40.0345 145.745 40.0345C145.029 40.0345 144.567 39.6649 144.567 39.0643C144.567 38.2559 145.214 38.0018 146.254 37.7939L147.94 37.4474V37.6553ZM151.22 35.4609C151.22 32.6659 149.303 31.4648 146.623 31.4648C143.69 31.4648 142.05 32.9893 141.703 35.1837L144.798 35.4147C144.983 34.56 145.468 33.9594 146.438 33.9594C147.455 33.9594 147.94 34.5369 147.94 35.5071V35.6919L145.075 36.2001C142.812 36.6389 141.333 37.4705 141.333 39.4339C141.333 41.1894 142.627 42.2289 144.683 42.2289C146.277 42.2289 147.547 41.6052 148.125 40.4272C148.425 41.5821 149.326 42.2289 150.55 42.2289C151.566 42.2289 152.213 41.9286 152.721 41.559V39.7804C152.421 39.919 152.167 39.9652 151.867 39.9652C151.451 39.9652 151.22 39.7342 151.22 39.2029V35.4609Z" fill="#1B1C20"/>
<path d="M158.245 45.74L164.135 31.7419H160.855L158.337 38.1404H158.245L155.773 31.7419H152.262L156.466 42.0903L154.965 45.74H158.245Z" fill="#1B1C20"/>
<rect x="1.1159" y="1.06903" width="177.784" height="60.3664" rx="12.2517" stroke="#1B1C20" stroke-width="0.628294"/>
<defs>
<linearGradient id="paint0_linear_10632_38443" x1="23.5936" y1="15.9447" x2="23.5936" y2="46.5587" gradientUnits="userSpaceOnUse">
<stop stop-color="#257CB0"/>
<stop offset="0.2863" stop-color="#4A93B5"/>
<stop offset="0.767" stop-color="#78BCBB"/>
<stop offset="1" stop-color="#89CFBD"/>
</linearGradient>
<linearGradient id="paint1_linear_10632_38443" x1="15.8798" y1="23.5441" x2="35.4513" y2="23.5441" gradientUnits="userSpaceOnUse">
<stop stop-color="#52C1AD"/>
<stop offset="1" stop-color="#DEE89A"/>
</linearGradient>
<linearGradient id="paint2_linear_10632_38443" x1="25.6654" y1="31.2524" x2="25.6654" y2="46.6705" gradientUnits="userSpaceOnUse">
<stop stop-color="#EC413D"/>
<stop offset="0.1668" stop-color="#DA4452"/>
<stop offset="0.5748" stop-color="#B0487A"/>
<stop offset="0.8619" stop-color="#954A92"/>
<stop offset="1" stop-color="#8A4A9D"/>
</linearGradient>
<linearGradient id="paint3_linear_10632_38443" x1="36.9346" y1="27.1402" x2="36.9346" y2="35.3627" gradientUnits="userSpaceOnUse">
<stop stop-color="#F58879"/>
<stop offset="0.1194" stop-color="#F69079"/>
<stop offset="0.7128" stop-color="#FCB877"/>
<stop offset="1" stop-color="#FEC874"/>
</linearGradient>
</defs>
</svg>
