<svg width="142" height="50" viewBox="0 0 142 50" fill="none" xmlns="http://www.w3.org/2000/svg">
<rect x="0.25" y="0.378311" width="141.5" height="49.2434" rx="9.75" fill="white" stroke="#1B1C20" stroke-width="0.5"/>
<path d="M38.7146 31.005C38.1389 32.2825 37.8635 32.8523 37.1209 33.9816C36.0862 35.5576 34.6259 37.5218 32.8194 37.5385C31.2131 37.5531 30.8001 36.4927 28.6202 36.5052C26.4402 36.5177 25.9855 37.5573 24.3792 37.5426C22.5727 37.5259 21.1896 35.7538 20.1549 34.1757C17.2595 29.7672 16.9591 24.5927 18.7427 21.8436C20.011 19.8878 22.0115 18.7439 23.8932 18.7439C25.8082 18.7439 27.0139 19.7959 28.5972 19.7959C30.1347 19.7959 31.0713 18.7439 33.2846 18.7439C34.9597 18.7439 36.7329 19.6561 37.997 21.2341C33.8562 23.5031 34.53 29.4228 38.7146 31.005Z" fill="#1B1C20"/>
<path d="M31.6046 16.9834C32.4098 15.9501 33.021 14.489 32.7978 12.9986C31.4836 13.0884 29.9462 13.9254 29.0471 15.0171C28.2314 16.0086 27.5597 17.476 27.8205 18.9037C29.2578 18.9476 30.7431 18.0897 31.6046 16.9834Z" fill="#1B1C20"/>
<path d="M46.5311 19.5207C47.4302 19.5207 48.2467 19.117 48.5036 18.3831V19.4106H49.2284V16.5574H46.7421V17.1812H48.5036C48.4027 18.1721 47.7054 18.851 46.6229 18.851C45.3752 18.851 44.5311 17.9611 44.5311 16.5299C44.5311 15.0987 45.366 14.1996 46.5495 14.1996C47.7146 14.1996 48.3935 14.8968 48.4577 15.9519L49.2192 15.906C49.1183 14.429 48.1733 13.5207 46.5403 13.5207C44.944 13.5207 43.7146 14.7409 43.7146 16.5207C43.7146 18.3189 44.8981 19.5207 46.5311 19.5207Z" fill="#1B1C20"/>
<path d="M53.3061 17.9886C53.141 18.6033 52.7465 18.9244 52.0768 18.9244C51.3612 18.9244 50.8015 18.3739 50.7648 17.5941H53.9575V17.2913C53.9575 16.1996 53.3061 15.2913 52.0309 15.2913C50.8749 15.2913 50.0034 16.1996 50.0034 17.4657C50.0034 18.7134 50.8749 19.5207 52.0676 19.5207C53.0676 19.5207 53.7373 18.9702 53.9392 18.062L53.3061 17.9886ZM50.7832 17.0987C50.8749 16.4381 51.3061 15.8693 52.0309 15.8693C52.7924 15.8693 53.1502 16.4565 53.1777 17.0987H50.7832Z" fill="#1B1C20"/>
<path d="M54.8865 18.4748C54.8865 19.2546 55.2901 19.5207 55.859 19.5207C56.2993 19.5207 56.5929 19.4014 56.8865 19.1812V18.6675C56.6571 18.7959 56.3911 18.906 56.1342 18.906C55.7856 18.906 55.6388 18.7409 55.6388 18.3831V15.9519H56.7672V15.4014H55.6388V14.2913H55.2076L55.0883 14.851C54.9966 15.2363 54.914 15.4198 54.5379 15.4932L54.281 15.539V15.9519H54.8865V18.4748Z" fill="#1B1C20"/>
<path d="M59.2016 15.4014V19.4106H59.9631V15.4014H59.2016ZM59.1833 14.4932H59.9723V13.6308H59.1833V14.4932Z" fill="#1B1C20"/>
<path d="M61.1401 18.4748C61.1401 19.2546 61.5437 19.5207 62.1125 19.5207C62.5529 19.5207 62.8465 19.4014 63.1401 19.1812V18.6675C62.9107 18.7959 62.6446 18.906 62.3878 18.906C62.0391 18.906 61.8924 18.7409 61.8924 18.3831V15.9519H63.0208V15.4014H61.8924V14.2913H61.4612L61.3419 14.851C61.2502 15.2363 61.1676 15.4198 60.7914 15.4932L60.5346 15.539V15.9519H61.1401V18.4748Z" fill="#1B1C20"/>
<path d="M65.9781 17.4106C65.9781 16.5115 66.4277 15.8877 67.235 15.8877C68.0515 15.8877 68.5103 16.5115 68.5103 17.4106C68.5103 18.3005 68.0515 18.9335 67.235 18.9335C66.4277 18.9335 65.9781 18.3005 65.9781 17.4106ZM69.2901 17.4106C69.2901 16.1629 68.4185 15.2913 67.235 15.2913C66.0607 15.2913 65.1983 16.1629 65.1983 17.4106C65.1983 18.6583 66.0607 19.5207 67.235 19.5207C68.4185 19.5207 69.2901 18.6583 69.2901 17.4106Z" fill="#1B1C20"/>
<path d="M70.8397 17.1079C70.8397 16.3739 71.3167 15.8968 71.9222 15.8968C72.5553 15.8968 72.8764 16.3189 72.8764 16.9886V19.4106H73.6378V16.9244C73.6378 15.9886 73.2158 15.2913 72.1699 15.2913C71.5736 15.2913 71.0323 15.6308 70.8397 16.117V15.4014H70.0782V19.4106H70.8397V17.1079Z" fill="#1B1C20"/>
<path d="M48.4161 22.2446L43.7146 33.9983H46.5504L47.5392 31.461H52.278L53.2855 33.9983H56.3079L51.5691 22.2446H48.4161ZM49.8713 25.4722H49.9459L51.4571 29.3341H48.3601L49.8713 25.4722Z" fill="#1B1C20"/>
<path d="M59.9028 29.7632C59.9028 28.4386 60.6677 27.5991 61.7871 27.5991C63.0558 27.5991 63.6715 28.5132 63.6715 29.8565C63.6715 31.2185 63.0558 32.1326 61.7871 32.1326C60.6677 32.1326 59.9028 31.2931 59.9028 29.9498V29.7632ZM59.9028 32.5244C60.3132 33.4946 61.2647 34.2222 62.7013 34.2222C65.1267 34.2222 66.3953 32.3005 66.3953 29.8565C66.3953 27.4311 65.1267 25.4908 62.7013 25.4908C61.2647 25.4908 60.3132 26.2185 59.9028 27.2073V25.7147H57.2162V37.0207H59.9028V32.5244Z" fill="#1B1C20"/>
<path d="M70.3608 29.7632C70.3608 28.4386 71.1257 27.5991 72.2451 27.5991C73.5137 27.5991 74.1294 28.5132 74.1294 29.8565C74.1294 31.2185 73.5137 32.1326 72.2451 32.1326C71.1257 32.1326 70.3608 31.2931 70.3608 29.9498V29.7632ZM70.3608 32.5244C70.7712 33.4946 71.7227 34.2222 73.1593 34.2222C75.5846 34.2222 76.8533 32.3005 76.8533 29.8565C76.8533 27.4311 75.5846 25.4908 73.1593 25.4908C71.7227 25.4908 70.7712 26.2185 70.3608 27.2073V25.7147H67.6742V37.0207H70.3608V32.5244Z" fill="#1B1C20"/>
<path d="M80.9808 29.8192C80.9808 32.6737 83.2196 34.2222 86.3539 34.2222C89.0405 34.2222 91.1487 32.9722 91.1487 30.5468C91.1487 28.6252 90.048 27.4311 87.6413 27.002L85.4398 26.6103C84.5816 26.4423 84.0592 26.1998 84.0592 25.5282C84.0592 24.7259 84.7308 24.2408 85.9248 24.2408C87.2868 24.2408 88.2383 24.9125 88.3129 26.2931L90.9248 26.2185C90.8689 23.6065 89.1338 22.0207 85.9435 22.0207C83.089 22.0207 81.2793 23.4573 81.2793 25.7707C81.2793 27.767 82.6039 28.8117 84.4696 29.1662L86.6711 29.558C87.6972 29.7632 88.3875 29.9498 88.3875 30.7334C88.3875 31.517 87.6039 32.002 86.3539 32.002C84.8987 32.002 83.686 31.3491 83.5741 29.7259L80.9808 29.8192Z" fill="#1B1C20"/>
<path d="M92.8969 31.7782C92.8969 33.6438 94.1096 34.2222 95.4529 34.2222C96.535 34.2222 97.2439 33.961 97.8596 33.4946V31.7222C97.3559 31.9461 96.9268 32.058 96.5163 32.058C95.882 32.058 95.5462 31.7595 95.5462 31.0505V27.5991H97.7477V25.7147H95.5462V23.42H93.8857L93.6059 24.5207C93.4006 25.2856 93.1581 25.7147 92.3372 25.864L91.7402 25.9573V27.5991H92.8969V31.7782Z" fill="#1B1C20"/>
<path d="M101.306 29.8565C101.306 28.4759 101.847 27.5244 103.041 27.5244C104.216 27.5244 104.794 28.4759 104.794 29.8565C104.794 31.2371 104.216 32.1886 103.041 32.1886C101.847 32.1886 101.306 31.2371 101.306 29.8565ZM107.518 29.8565C107.518 27.3005 105.69 25.4908 103.041 25.4908C100.391 25.4908 98.5817 27.3005 98.5817 29.8565C98.5817 32.4311 100.391 34.2222 103.041 34.2222C105.69 34.2222 107.518 32.4311 107.518 29.8565Z" fill="#1B1C20"/>
<path d="M114.952 25.8267C114.728 25.6401 114.299 25.4908 113.795 25.4908C112.676 25.4908 111.817 26.2931 111.5 27.2259V25.7147H108.814V33.9983H111.5V30.0804C111.5 28.6438 112.247 28.0095 113.366 28.0095C113.944 28.0095 114.355 28.1028 114.784 28.3453L114.952 25.8267Z" fill="#1B1C20"/>
<path d="M121.706 31.0692C121.408 31.8341 120.83 32.1886 119.897 32.1886C118.852 32.1886 118.031 31.5543 117.956 30.4535H123.927V29.6326C123.927 27.3752 122.49 25.4908 119.747 25.4908C117.21 25.4908 115.307 27.3752 115.307 29.9871C115.307 32.6177 117.173 34.2222 119.803 34.2222C121.968 34.2222 123.441 33.1588 123.871 31.2744L121.706 31.0692ZM117.994 29.017C118.143 28.1401 118.647 27.4498 119.729 27.4498C120.755 27.4498 121.277 28.1961 121.333 29.017H117.994Z" fill="#1B1C20"/>
</svg>
