<svg width="91" height="19" viewBox="0 0 91 19" fill="none" xmlns="http://www.w3.org/2000/svg">
<g clip-path="url(#clip0_10632_38586)">
<path fill-rule="evenodd" clip-rule="evenodd" d="M79.9867 1.20697C79.1597 1.33951 77.8892 1.79846 77.1178 2.24363C75.6727 3.0774 74.2076 4.81954 73.6262 6.39539C72.6613 9.00961 72.9903 12.4768 74.3988 14.5393C75.71 16.4593 77.4321 17.5432 79.8974 17.9999C81.4393 18.2856 83.0061 18.0903 84.3918 17.4399C84.9052 17.1989 86.2116 16.3954 86.7514 15.9886C87.0233 15.7835 87.3832 16.0336 87.9633 16.8305C88.7526 17.915 89.048 18.0601 89.5205 17.5953L89.772 17.3479L89.7706 9.86009C89.7698 5.74192 89.7429 2.27598 89.7107 2.15816C89.6341 1.87728 89.2384 1.67541 88.9188 1.75433C88.7764 1.7895 88.4012 2.12803 88.0656 2.5242C87.4253 3.27998 87.1058 3.44829 86.7461 3.21941C86.6237 3.1416 86.1682 2.84178 85.7336 2.55313C84.8919 1.99409 84.1972 1.64487 83.3681 1.36379C82.7848 1.16615 80.8128 1.07464 79.9867 1.20697ZM32.1883 1.88051C31.3605 2.05849 30.417 2.48762 29.5637 3.07428C29.2034 3.32201 28.9078 3.49223 28.9068 3.45252C28.9058 3.41271 28.6142 3.07418 28.2589 2.69998C27.5528 1.9563 27.2382 1.84865 26.8594 2.22125C26.658 2.41929 26.6544 2.55716 26.6544 10.127V17.8312L26.8823 17.9881C27.0647 18.1139 27.4276 18.145 28.7086 18.145C30.2372 18.145 30.317 18.135 30.5255 17.9167C30.7404 17.6917 30.7437 17.6239 30.7738 12.9532L30.8043 8.21786L31.0753 7.71394C31.6961 6.56057 32.5953 6.00062 33.8269 6.00062C35.079 6.00062 36.0042 6.56108 36.6184 7.69156C36.8468 8.11193 36.8502 8.17553 36.9008 12.926C36.9482 17.3658 36.9661 17.7487 37.1348 17.9148C37.2915 18.0691 37.5464 18.0991 38.9311 18.1265C40.4593 18.1565 40.5598 18.1466 40.8285 17.9388L41.1121 17.7193L41.0782 12.5654L41.0445 7.41159L40.7662 6.66478C39.8324 4.1577 38.1222 2.56553 35.7189 1.96587C34.5709 1.67945 33.2703 1.648 32.1883 1.88051ZM1.55088 2.22125C1.34953 2.41929 1.34595 2.55716 1.34595 10.075V17.7273L1.61594 17.9361C1.86329 18.1274 2.0221 18.145 3.51151 18.145C5.32922 18.145 5.47237 18.0952 5.59706 17.4199C5.63087 17.2367 5.64502 13.7922 5.62841 9.76538C5.59941 2.72961 5.59061 2.43562 5.403 2.23183C5.21928 2.03218 5.10626 2.01969 3.4818 2.01969C1.89239 2.01969 1.73961 2.03561 1.55088 2.22125ZM12.4508 2.09678C12.3876 2.1375 10.8545 3.87158 9.04394 5.95023C6.28131 9.12198 5.75209 9.77909 5.75199 10.0374C5.75188 10.2966 6.28192 10.9482 9.11238 14.1695L12.4729 17.9938H14.5134H16.5539L16.7016 17.7349C16.7883 17.5832 16.8219 17.3744 16.7832 17.231C16.7467 17.0963 15.3795 15.492 13.7447 13.6661C11.4748 11.1305 10.7726 10.2842 10.7726 10.0836C10.7726 9.88534 11.4997 8.98522 13.7441 6.40547C16.8549 2.82968 16.9125 2.74432 16.556 2.24373C16.4007 2.02573 16.3451 2.01969 14.4811 2.0212C13.4276 2.0221 12.514 2.05607 12.4508 2.09678ZM22.3342 2.14567C22.2471 2.215 21.5236 3.00888 20.7264 3.90988L19.2771 5.548V11.6411V17.734L19.5014 17.9395C19.7074 18.1284 19.8569 18.145 21.3503 18.145C22.9387 18.145 22.9808 18.1394 23.2266 17.8976L23.4781 17.6503V10.1005C23.4781 2.61521 23.4762 2.5485 23.2657 2.28525C23.0336 1.995 22.6045 1.9307 22.3342 2.14567ZM47.7619 2.12219C44.9538 2.60231 43.0234 5.37939 43.5948 8.11707C43.8347 9.2666 44.2867 10.1068 45.0898 10.8959C46.398 12.1816 47.2269 12.3961 50.8948 12.3986C53.447 12.4004 53.4657 12.4019 53.687 12.6336C53.9925 12.9535 53.9799 13.4492 53.6582 13.7655L53.4068 14.0129H48.645H43.8832L43.6709 14.2784C43.4769 14.521 43.4585 14.6785 43.4585 16.097C43.4585 17.6117 43.4648 17.6564 43.71 17.8976L43.9615 18.145L48.6539 18.1433C52.3296 18.1419 53.4962 18.1102 54.0386 17.9972C57.263 17.3252 59.0905 13.8026 57.7006 10.9384C57.1444 9.79199 56.2247 8.9837 54.8831 8.46255C54.2996 8.23589 54.1155 8.22108 51.2623 8.17038L48.2562 8.11707L48.0091 7.83427C47.5769 7.33972 47.7355 6.58517 48.3296 6.30781C48.6138 6.17518 49.2686 6.1518 52.6985 6.1518C56.1844 6.1518 56.7641 6.13043 56.9608 5.99488C57.1809 5.8433 57.1886 5.78051 57.1886 4.13775V2.43743L56.9186 2.22861C56.6549 2.02452 56.552 2.01999 52.4358 2.03158C50.1188 2.03803 48.0156 2.07884 47.7619 2.12219ZM59.4428 2.22125C59.2541 2.4069 59.2379 2.55716 59.2379 4.12051C59.2379 6.12166 59.2519 6.1518 60.1824 6.1518C60.5904 6.1518 60.8209 6.20642 60.994 6.34419C61.2356 6.53648 61.236 6.54031 61.2914 9.44328C61.3455 12.2853 61.3529 12.3677 61.6284 13.1452C62.4507 15.4665 64.1507 17.0847 66.5641 17.8434C67.1727 18.0348 67.5853 18.0766 69.2921 18.1196C71.9236 18.1859 71.7384 18.3428 71.7384 16.0442C71.7384 14.5537 71.7166 14.3275 71.5591 14.191C71.4188 14.0696 71.0117 14.0247 69.6892 13.985C68.4642 13.9481 67.8646 13.8869 67.5124 13.7626C66.8452 13.5273 66.0832 12.8281 65.7838 12.1765C65.5509 11.6694 65.5379 11.5276 65.5073 9.15191L65.4753 6.65934L65.7331 6.40557L65.9911 6.1518H68.6599C72.0525 6.1518 71.7639 6.34812 71.7196 4.06992C71.6883 2.45971 71.6792 2.39822 71.4453 2.21208C71.2136 2.02785 70.9593 2.01969 65.4256 2.01969C59.7844 2.01969 59.6429 2.02443 59.4428 2.22125ZM83.0835 5.7406C84.4438 6.45656 85.363 7.83941 85.4487 9.29966C85.6264 12.3162 82.8497 14.6228 80.1272 13.7202C78.9385 13.3262 78.1303 12.567 77.6645 11.4071C77.4767 10.9394 77.4351 10.6321 77.4306 9.67921C77.4235 8.17713 77.6554 7.45462 78.4128 6.61892C79.265 5.67832 80.1296 5.33294 81.5237 5.37637C82.3425 5.40187 82.5173 5.44269 83.0835 5.7406Z" fill="#6B7280"/>
</g>
<defs>
<clipPath id="clip0_10632_38586">
<rect width="89.8438" height="17.9688" fill="white" transform="translate(0.5 0.348206)"/>
</clipPath>
</defs>
</svg>
