<svg width="94" height="19" viewBox="0 0 94 19" fill="none" xmlns="http://www.w3.org/2000/svg">
<g clip-path="url(#clip0_10723_6889)">
<path fill-rule="evenodd" clip-rule="evenodd" d="M81.7936 1.38829C80.9652 1.52106 79.6925 1.98082 78.9197 2.42675C77.4721 3.26198 76.0045 5.00715 75.422 6.58574C74.4555 9.2045 74.7851 12.6777 76.196 14.7438C77.5095 16.6671 79.2346 17.753 81.7042 18.2105C83.2487 18.4967 84.8183 18.301 86.2064 17.6494C86.7207 17.408 88.0293 16.6032 88.5701 16.1956C88.8424 15.9902 89.203 16.2407 89.7841 17.039C90.5748 18.1254 90.8707 18.2707 91.344 17.8051L91.596 17.5573L91.5945 10.0565C91.5938 5.93112 91.5668 2.45916 91.5346 2.34114C91.4578 2.05977 91.0615 1.85754 90.7413 1.9366C90.5986 1.97183 90.2228 2.31095 89.8865 2.70782C89.2452 3.46491 88.9251 3.63351 88.5648 3.40423C88.4422 3.32629 87.9858 3.02594 87.5505 2.7368C86.7074 2.17678 86.0114 1.82695 85.1809 1.54539C84.5966 1.3474 82.6212 1.25573 81.7936 1.38829ZM33.9121 2.063C33.0829 2.24129 32.1377 2.67117 31.2829 3.25885C30.9221 3.50701 30.6259 3.67752 30.6249 3.63774C30.6239 3.59787 30.3317 3.25875 29.9759 2.88389C29.2685 2.13892 28.9534 2.03109 28.5739 2.40434C28.3722 2.60272 28.3686 2.74083 28.3686 10.3238V18.0414L28.5968 18.1986C28.7796 18.3246 29.1431 18.3558 30.4264 18.3558C31.9576 18.3558 32.0376 18.3457 32.2464 18.1271C32.4617 17.9017 32.465 17.8338 32.4952 13.1549L32.5257 8.41137L32.7972 7.90658C33.419 6.7512 34.3198 6.19028 35.5535 6.19028C36.8079 6.19028 37.7347 6.75171 38.3499 7.88416C38.5787 8.30526 38.5821 8.36897 38.6328 13.1277C38.6802 17.5752 38.6982 17.9588 38.8672 18.1252C39.0242 18.2797 39.2795 18.3098 40.6666 18.3372C42.1974 18.3673 42.2981 18.3574 42.5673 18.1493L42.8514 17.9294L42.8175 12.7665L42.7837 7.6037L42.505 6.85559C41.5695 4.34416 39.8563 2.74922 37.4488 2.14851C36.2988 1.86159 34.996 1.83009 33.9121 2.063ZM3.2214 2.40434C3.01971 2.60272 3.01611 2.74083 3.01611 10.2717V17.9373L3.28658 18.1465C3.53435 18.3382 3.69344 18.3558 5.18544 18.3558C7.00631 18.3558 7.14971 18.3059 7.27462 17.6294C7.30849 17.4459 7.32266 13.9954 7.30602 9.96159C7.27698 2.91357 7.26816 2.61908 7.08022 2.41494C6.89618 2.21494 6.78296 2.20242 5.15568 2.20242C3.5635 2.20242 3.41046 2.21837 3.2214 2.40434ZM14.1403 2.27965C14.077 2.32044 12.5412 4.05753 10.7275 6.1398C7.96006 9.31707 7.42992 9.97532 7.42982 10.2341C7.42971 10.4938 7.96067 11.1465 10.7961 14.3733L14.1624 18.2043H16.2065H18.2505L18.3985 17.945C18.4853 17.793 18.519 17.5839 18.4803 17.4402C18.4437 17.3052 17.0741 15.6981 15.4365 13.869C13.1626 11.3291 12.4592 10.4813 12.4592 10.2803C12.4592 10.0818 13.1875 9.18007 15.4358 6.59583C18.5521 3.01383 18.6098 2.92832 18.2526 2.42685C18.0971 2.20848 18.0413 2.20242 16.1741 2.20394C15.1188 2.20484 14.2036 2.23887 14.1403 2.27965ZM24.0408 2.32862C23.9536 2.39807 23.2289 3.19333 22.4303 4.0959L20.9785 5.73687V11.8405V17.9441L21.2031 18.1499C21.4095 18.3391 21.5592 18.3558 23.0553 18.3558C24.6464 18.3558 24.6886 18.3502 24.9348 18.108L25.1868 17.8602V10.2973C25.1868 2.79898 25.1849 2.73215 24.974 2.46844C24.7415 2.17769 24.3116 2.11328 24.0408 2.32862ZM49.5128 2.3051C46.6998 2.78606 44.766 5.56797 45.3384 8.31041C45.5788 9.46194 46.0315 10.3036 46.836 11.0941C48.1465 12.382 48.9768 12.5969 52.6512 12.5994C55.2077 12.6012 55.2265 12.6027 55.4482 12.8348C55.7542 13.1552 55.7416 13.6518 55.4194 13.9686L55.1675 14.2164H50.3974H45.6274L45.4147 14.4825C45.2203 14.7255 45.2019 14.8832 45.2019 16.3043C45.2019 17.8216 45.2082 17.8664 45.4538 18.108L45.7057 18.3558L50.4064 18.3541C54.0884 18.3527 55.2571 18.3209 55.8004 18.2077C59.0304 17.5345 60.8611 14.0058 59.4688 11.1366C58.9116 9.98824 57.9903 9.17855 56.6464 8.65649C56.0619 8.42944 55.8774 8.4146 53.0193 8.36381L50.0079 8.31041L49.7604 8.02712C49.3274 7.53171 49.4863 6.77584 50.0814 6.498C50.3661 6.36514 51.0221 6.34172 54.458 6.34172C57.9499 6.34172 58.5306 6.32031 58.7277 6.18453C58.9481 6.03268 58.9559 5.96979 58.9559 4.32417V2.6209L58.6854 2.41171C58.4212 2.20726 58.3181 2.20273 54.1948 2.21433C51.8738 2.22079 49.7669 2.26168 49.5128 2.3051ZM61.214 2.40434C61.025 2.5903 61.0088 2.74083 61.0088 4.3069C61.0088 6.31153 61.0228 6.34172 61.9549 6.34172C62.3636 6.34172 62.5945 6.39643 62.7679 6.53445C63.0099 6.72707 63.0104 6.73091 63.0658 9.63892C63.12 12.4859 63.1275 12.5684 63.4034 13.3472C64.2272 15.6726 65.9301 17.2936 68.3476 18.0537C68.9574 18.2454 69.3707 18.2873 71.0804 18.3303C73.7165 18.3967 73.531 18.554 73.531 16.2513C73.531 14.7582 73.5091 14.5316 73.3514 14.3949C73.2109 14.2733 72.803 14.2283 71.4782 14.1885C70.2511 14.1516 69.6505 14.0903 69.2977 13.9658C68.6293 13.7301 67.8659 13.0297 67.5661 12.3769C67.3327 11.869 67.3197 11.7269 67.2891 9.34705L67.2569 6.85015L67.5153 6.59593L67.7737 6.34172H70.4471C73.8456 6.34172 73.5566 6.53839 73.5121 4.25622C73.4808 2.64321 73.4717 2.58162 73.2374 2.39515C73.0053 2.2106 72.7505 2.20242 67.2072 2.20242C61.5562 2.20242 61.4144 2.20717 61.214 2.40434ZM84.8958 5.92981C86.2585 6.64701 87.1792 8.03226 87.2652 9.49506C87.4431 12.5169 84.6616 14.8274 81.9343 13.9233C80.7436 13.5286 79.934 12.7681 79.4674 11.6062C79.2792 11.1377 79.2376 10.8298 79.2331 9.87526C79.226 8.37058 79.4583 7.64681 80.2169 6.80966C81.0707 5.86741 81.9368 5.52143 83.3333 5.56495C84.1535 5.59049 84.3286 5.63138 84.8958 5.92981Z" fill="#6B7280"/>
</g>
<defs>
<clipPath id="clip0_10723_6889">
<rect width="90" height="18" fill="white" transform="translate(2.1687 0.527954)"/>
</clipPath>
</defs>
</svg>
