<svg width="107" height="19" viewBox="0 0 107 19" fill="none" xmlns="http://www.w3.org/2000/svg">
<g clip-path="url(#clip0_10723_6893)">
<path fill-rule="evenodd" clip-rule="evenodd" d="M14.81 1.42092C13.9301 1.96689 13.7427 2.29181 13.0116 4.53902L12.3313 6.63062L11.1703 4.57184L10.0092 2.51325L7.63224 2.45938L5.25545 2.40552L5.0546 2.94203C4.94408 3.23722 4.68389 4.04324 4.47638 4.73342C3.41332 8.26772 2.30652 11.8297 2.14884 12.2235C2.05108 12.4674 1.97119 13.0653 1.97119 13.5522C1.97119 15.2081 3.11698 16.317 4.82787 16.317C5.50234 16.317 5.742 16.2019 6.33524 15.593C6.76092 15.1559 7.15636 14.4864 7.33248 13.9037C7.49321 13.3728 7.77547 12.4301 7.95997 11.8089L8.29549 10.6793L9.42514 12.7315L10.5547 14.7835L13.0472 14.7299C15.5208 14.6763 15.5407 14.6723 15.6843 14.1933C15.7639 13.9279 16.1015 12.7985 16.4343 11.6835C16.7672 10.5687 17.4306 8.44019 17.9084 6.9536C18.3898 5.45585 18.7664 3.92605 18.7531 3.52256C18.6903 1.62402 16.4267 0.417593 14.81 1.42092ZM16.9973 2.80284C17.7943 3.61175 17.2901 5.11954 16.2227 5.11954C15.4357 5.11954 15.1111 4.93826 14.798 4.32395C14.5469 3.83107 14.5473 3.70442 14.8011 3.20633C14.9585 2.89744 15.1961 2.60032 15.3291 2.54588C15.8759 2.3227 16.6401 2.44027 16.9973 2.80284ZM91.5577 3.6716C91.5577 4.87706 91.1337 5.50566 90.321 5.50566C89.859 5.50566 89.8457 5.54427 89.8457 6.85708V8.20846H90.6063H91.367V10.4349C91.367 12.8338 91.5623 13.6093 92.341 14.3113C93.1383 15.0291 94.5777 15.3407 95.6943 15.037C96.0857 14.9304 96.1223 14.8065 96.1223 13.5915V12.2627H95.3817C94.4623 12.2627 94.4103 12.1392 94.4103 9.93019V8.20846H95.2663H96.1223V6.85708V5.50566H95.2663H94.4103V4.36314C94.4103 2.63854 94.385 2.60978 92.8683 2.60978H91.5577V3.6716ZM11.1965 6.60127L11.991 8.08432L11.6524 9.06352C11.4662 9.60199 11.1742 10.542 11.0036 11.1527C10.8332 11.7633 10.6201 12.2627 10.5302 12.2627C10.4404 12.2627 10.0121 11.6104 9.5786 10.8133L8.7902 9.36372L9.49814 7.14145C9.88747 5.919 10.25 4.96374 10.3041 5.01858C10.3579 5.07321 10.7596 5.7854 11.1965 6.60127ZM26.5606 5.36531C26.2238 5.49562 25.7743 5.75336 25.5621 5.93812C25.1927 6.25975 25.1761 6.25762 25.1761 5.88985C25.1761 5.54041 25.047 5.50566 23.7496 5.50566H22.3231V10.2356V14.9655H23.7496H25.1761V12.2915C25.1761 8.70212 25.4443 8.01546 26.8459 8.01546C27.9157 8.01546 28.0292 8.38299 28.0292 11.8436V14.9655H29.5651H31.101L31.0392 11.1217L30.9774 7.27792L30.3895 6.5366C30.0661 6.12886 29.5581 5.6742 29.2604 5.52612C28.5135 5.15487 27.2933 5.08209 26.5606 5.36531ZM36.208 5.38442C33.8223 6.18812 32.6915 7.72026 32.6987 10.1391C32.7023 11.3602 32.7875 11.7438 33.2421 12.5871C34.2175 14.3964 35.5611 15.1801 37.6876 15.1801C38.9528 15.1801 39.2129 15.1125 40.1412 14.542C42.9605 12.8093 43.4243 8.95059 41.1057 6.51884C39.9868 5.34484 37.8167 4.84231 36.208 5.38442ZM64.3583 5.25121C64.2013 5.30681 63.7521 5.5157 63.3597 5.71552C62.763 6.0192 62.6464 6.03175 62.6464 5.79216C62.6464 5.56435 62.3543 5.50566 61.2199 5.50566H59.7933V11.9731V18.4406H61.315H62.8366V16.5075V14.5742L63.5255 14.8665C65.1075 15.5374 67.1984 15.0154 68.3741 13.6563C69.269 12.6216 69.5403 11.7849 69.533 10.0791C69.523 7.59092 68.6043 6.11244 66.6293 5.40508C65.8367 5.12128 64.9034 5.05796 64.3583 5.25121ZM74.3437 5.34523C72.569 5.95221 71.2757 7.14376 70.859 8.55732C70.1537 10.9469 71.297 13.6379 73.503 14.7804C74.581 15.3383 76.6223 15.3355 77.7637 14.7745C80.8243 13.2707 81.5283 9.29559 79.2103 6.61536C78.161 5.40257 75.901 4.81258 74.3437 5.34523ZM85.899 5.50354C85.559 5.71397 85.281 5.80046 85.281 5.69582C85.281 5.58674 84.6317 5.50566 83.759 5.50566H82.2377V10.2356V14.9655H83.759H85.281V11.5571C85.281 8.26719 85.293 8.15986 85.6283 8.46812C86.1797 8.97432 87.415 8.88532 87.9943 8.29786C88.6477 7.63432 88.7797 6.97909 88.4157 6.20068C87.9137 5.12823 86.941 4.85872 85.899 5.50354ZM99.835 5.42805C98.2403 6.02055 97.2623 7.61599 97.6523 8.98846C97.997 10.2015 98.9063 10.9401 100.61 11.3905C101.844 11.7166 102.281 12.0409 102.107 12.5006C101.812 13.2809 100.206 12.9423 99.977 12.0513C99.8963 11.7397 99.767 11.7046 99.0963 11.8123C97.9583 11.9951 97.4617 12.1463 97.4577 12.311C97.439 13.056 97.5317 13.3043 98.0523 13.9061C98.8457 14.8235 99.7037 15.1586 101.258 15.1586C103.703 15.1586 105.062 14.0093 105.062 11.9415C105.062 10.4185 104.109 9.43266 102.209 8.99039C100.858 8.67586 100.592 8.53126 100.592 8.11199C100.592 7.21886 102.24 7.27619 102.366 8.17372C102.424 8.58286 102.491 8.60446 103.317 8.48146C104.896 8.24612 105.066 8.12679 104.866 7.39686C104.53 6.1667 102.754 5.09174 101.126 5.13306C100.832 5.14059 100.252 5.27341 99.835 5.42805ZM43.0553 5.75374C43.0553 5.98194 43.6408 7.93299 45.2111 12.9385L45.8167 14.869L47.3618 14.9248C48.9003 14.9803 48.9074 14.9783 49.0359 14.4584C49.2906 13.4279 50.7149 9.35466 50.7927 9.43366C50.8364 9.47806 51.2773 10.7192 51.7724 12.1917L52.6727 14.869L54.1146 14.925C55.8078 14.9907 55.5023 15.427 56.8568 11.0079C57.345 9.41512 57.9059 7.59806 58.1032 6.97002C58.3004 6.34199 58.4619 5.75181 58.4619 5.65876C58.4619 5.56551 57.8002 5.51474 56.9913 5.54582L55.5206 5.60219L54.8646 7.96719C54.5037 9.26779 54.1591 10.3321 54.0988 10.3321C54.0385 10.3321 53.6959 9.44152 53.3376 8.35326C52.3109 5.2348 52.5549 5.50566 50.7703 5.50566H49.2259L48.3957 8.05926C47.4835 10.8646 47.5175 10.8523 46.9279 8.59459C46.7755 8.01059 46.5205 7.07678 46.3611 6.51922L46.0716 5.50566H44.5635C43.4622 5.50566 43.0553 5.57246 43.0553 5.75374ZM38.5557 8.22972C39.1871 8.52179 39.5048 9.19539 39.5048 10.2422C39.5048 11.8293 38.2649 12.8075 36.9527 12.256C35.7937 11.7687 35.3387 10.3536 35.9327 9.08306C36.3877 8.10986 37.5082 7.74532 38.5557 8.22972ZM66.0847 8.57972C67.1335 9.64426 66.7197 11.8695 65.404 12.2382C63.8533 12.6728 62.8366 11.8013 62.8366 10.0373C62.8366 8.81199 63.586 8.01546 64.7387 8.01546C65.3583 8.01546 65.6486 8.13726 66.0847 8.57972ZM76.6043 8.23359C77.4557 8.62706 77.8463 10.4401 77.3023 11.4716C77.0217 12.0035 75.8717 12.5233 75.299 12.3774C74.4777 12.1683 73.8957 11.516 73.7703 10.6646C73.4843 8.72279 74.9483 7.46752 76.6043 8.23359ZM5.49853 12.7367C6.23063 13.4796 6.09901 14.3997 5.1923 14.8756C4.31736 15.3349 3.11242 14.5741 3.11242 13.5624C3.11242 13.0448 3.971 12.2627 4.53895 12.2627C4.80999 12.2627 5.24176 12.4761 5.49853 12.7367Z" fill="#6B7280"/>
</g>
<defs>
<clipPath id="clip0_10723_6893">
<rect width="103.333" height="18" fill="white" transform="translate(1.729 0.527954)"/>
</clipPath>
</defs>
</svg>
