<svg width="151" height="27" viewBox="0 0 151 27" fill="none" xmlns="http://www.w3.org/2000/svg">
<g clip-path="url(#clip0_10632_38592)">
<path fill-rule="evenodd" clip-rule="evenodd" d="M19.8185 1.59431C18.5446 2.38483 18.2732 2.85529 17.2146 6.10906L16.2295 9.13752L14.5485 6.15658L12.8674 3.17592L9.42574 3.09792L5.98434 3.01993L5.69352 3.79675C5.5335 4.22416 5.15677 5.39121 4.8563 6.39054C3.31709 11.5079 1.71453 16.6654 1.48623 17.2356C1.34467 17.5887 1.229 18.4543 1.229 19.1594C1.229 21.5569 2.88802 23.1626 5.36524 23.1626C6.34181 23.1626 6.68882 22.996 7.54779 22.1143C8.16413 21.4815 8.73669 20.512 8.99171 19.6684C9.22443 18.8996 9.63312 17.5347 9.90026 16.6352L10.3861 14.9996L12.0217 17.971L13.6573 20.9422L17.2661 20.8645C20.8477 20.787 20.8766 20.7812 21.0845 20.0877C21.1997 19.7033 21.6885 18.068 22.1704 16.4537C22.6524 14.8395 23.6129 11.7576 24.3048 9.60518C25.0018 7.43656 25.5471 5.22153 25.5279 4.63731C25.4369 1.88838 22.1594 0.141578 19.8185 1.59431ZM22.9856 3.59521C24.1395 4.76645 23.4095 6.94961 21.864 6.94961C20.7245 6.94961 20.2545 6.68713 19.8012 5.79766C19.4376 5.08401 19.4382 4.90064 19.8056 4.17944C20.0336 3.73219 20.3776 3.30198 20.5701 3.22316C21.3618 2.90001 22.4684 3.07025 22.9856 3.59521ZM130.943 4.85312C130.943 6.59852 130.329 7.50868 129.152 7.50868C128.483 7.50868 128.464 7.56458 128.464 9.46542V11.4221H129.565H130.667V14.6457C130.667 18.1192 130.95 19.2421 132.077 20.2584C133.231 21.2978 135.315 21.7489 136.932 21.3092C137.499 21.1549 137.552 20.9755 137.552 19.2163V17.2923H136.48C135.148 17.2923 135.073 17.1135 135.073 13.915V11.4221H136.313H137.552V9.46542V7.50868H136.313H135.073V5.8544C135.073 3.35733 135.037 3.31568 132.84 3.31568H130.943V4.85312ZM14.5864 9.09503L15.7369 11.2424L15.2466 12.6602C14.977 13.4398 14.5542 14.8009 14.3072 15.6851C14.0605 16.5692 13.752 17.2923 13.6217 17.2923C13.4917 17.2923 12.8715 16.3478 12.2439 15.1936L11.1024 13.0948L12.1274 9.87716C12.6911 8.10716 13.216 6.72403 13.2943 6.80342C13.3722 6.88253 13.9539 7.91372 14.5864 9.09503ZM36.8324 7.30546C36.3448 7.49414 35.694 7.86732 35.3866 8.13484C34.8518 8.60054 34.8278 8.59746 34.8278 8.06495C34.8278 7.55899 34.6409 7.50868 32.7623 7.50868H30.6968V14.3572V21.2058H32.7623H34.8278V17.334C34.8278 12.1369 35.2162 11.1427 37.2456 11.1427C38.7944 11.1427 38.9588 11.6748 38.9588 16.6855V21.2058H41.1826H43.4065L43.3171 15.6403L43.2276 10.0748L42.3763 9.00139C41.9081 8.41101 41.1725 7.75271 40.7415 7.53831C39.66 7.00076 37.8933 6.89538 36.8324 7.30546ZM50.8011 7.33314C47.3467 8.49683 45.7094 10.7152 45.7199 14.2174C45.7251 15.9855 45.8485 16.541 46.5067 17.7619C47.919 20.3817 49.8645 21.5164 52.9434 21.5164C54.7753 21.5164 55.1519 21.4185 56.496 20.5925C60.5781 18.0837 61.2497 12.4966 57.8926 8.97567C56.2724 7.27583 53.1304 6.5482 50.8011 7.33314ZM91.5603 7.14025C91.3331 7.22076 90.6826 7.52322 90.1144 7.81253C89.2505 8.25224 89.0817 8.27041 89.0817 7.92351C89.0817 7.59366 88.6587 7.50868 87.0162 7.50868H84.9507V16.873V26.2374H87.1539H89.3571V23.4385V20.6392L90.3546 21.0624C92.6451 22.0338 95.6726 21.278 97.3748 19.3101C98.6706 17.8119 99.0635 16.6005 99.0529 14.1306C99.0384 10.528 97.7083 8.38725 94.8485 7.36304C93.701 6.95213 92.3496 6.86044 91.5603 7.14025ZM106.018 7.27639C103.449 8.15524 101.576 9.88051 100.973 11.9272C99.9516 15.3871 101.607 19.2834 104.801 20.9377C106.362 21.7456 109.318 21.7414 110.97 20.9291C115.402 18.7517 116.421 12.9962 113.065 9.11543C111.546 7.35941 108.273 6.50515 106.018 7.27639ZM122.749 7.5056C122.257 7.81029 121.855 7.93553 121.855 7.78402C121.855 7.62608 120.914 7.50868 119.651 7.50868H117.448V14.3572V21.2058H119.651H121.855V16.2707C121.855 11.5071 121.872 11.3517 122.358 11.7981C123.156 12.531 124.945 12.4021 125.783 11.5515C126.729 10.5908 126.92 9.64208 126.393 8.515C125.667 6.96219 124.258 6.57197 122.749 7.5056ZM142.928 7.3963C140.619 8.2542 139.203 10.5643 139.767 12.5515C140.266 14.3078 141.583 15.3772 144.049 16.0294C145.836 16.5016 146.469 16.9712 146.217 17.6368C145.79 18.7666 143.465 18.2763 143.133 16.9863C143.016 16.5351 142.829 16.4842 141.858 16.6402C140.21 16.9049 139.491 17.1238 139.485 17.3622C139.458 18.4409 139.593 18.8004 140.347 19.6718C141.495 21.0001 142.738 21.4853 144.988 21.4853C148.528 21.4853 150.496 19.8213 150.496 16.8272C150.496 14.622 149.116 13.1946 146.365 12.5543C144.409 12.0989 144.024 11.8895 144.024 11.2824C144.024 9.98924 146.409 10.0723 146.593 11.3718C146.676 11.9642 146.773 11.9955 147.969 11.8174C150.255 11.4766 150.501 11.3039 150.213 10.247C149.725 8.4658 147.154 6.90936 144.797 6.96918C144.372 6.98009 143.531 7.1724 142.928 7.3963ZM60.7154 7.86788C60.7154 8.19829 61.5631 11.0232 63.8368 18.2707L64.7137 21.066L66.9508 21.1468C69.1785 21.2271 69.1887 21.2243 69.3748 20.4715C69.7436 18.9794 71.8058 13.0817 71.9184 13.1961C71.9818 13.2604 72.6202 15.0574 73.337 17.1894L74.6405 21.066L76.7283 21.1471C79.1799 21.2422 78.7376 21.8739 80.6988 15.4754C81.4057 13.1693 82.2179 10.5383 82.5035 9.62894C82.789 8.71961 83.0229 7.86508 83.0229 7.73035C83.0229 7.59534 82.0648 7.52182 80.8935 7.56682L78.7641 7.64844L77.8143 11.0728C77.2918 12.9559 76.7928 14.497 76.7055 14.497C76.6182 14.497 76.1221 13.2075 75.6033 11.6318C74.1167 7.11649 74.4701 7.50868 71.886 7.50868H69.6499L68.4479 11.2061C67.1271 15.268 67.1763 15.2501 66.3226 11.9812C66.102 11.1356 65.7327 9.78352 65.5019 8.97623L65.0827 7.50868H62.8991C61.3045 7.50868 60.7154 7.60539 60.7154 7.86788ZM54.2003 11.4529C55.1146 11.8758 55.5746 12.8511 55.5746 14.3668C55.5746 16.6648 53.7792 18.0812 51.8793 17.2826C50.2012 16.577 49.5424 14.5281 50.4025 12.6884C51.0613 11.2793 52.6836 10.7515 54.2003 11.4529ZM94.0601 11.9597C95.5787 13.501 94.9794 16.7229 93.0744 17.2568C90.8291 17.8861 89.3571 16.6243 89.3571 14.0701C89.3571 12.296 90.4421 11.1427 92.1111 11.1427C93.0083 11.1427 93.4286 11.319 94.0601 11.9597ZM109.292 11.4585C110.524 12.0282 111.09 14.6533 110.302 16.1468C109.896 16.9169 108.231 17.6697 107.402 17.4584C106.212 17.1557 105.37 16.2111 105.188 14.9784C104.774 12.1668 106.894 10.3493 109.292 11.4585ZM6.3363 17.9786C7.39632 19.0543 7.20574 20.3865 5.89291 21.0756C4.62607 21.7405 2.8814 20.639 2.8814 19.1742C2.8814 18.4247 4.12457 17.2923 4.94691 17.2923C5.33935 17.2923 5.96451 17.6012 6.3363 17.9786Z" fill="#6B7280"/>
</g>
<defs>
<clipPath id="clip0_10632_38592">
<rect width="149.618" height="26.0625" fill="white" transform="translate(0.878418 0.301331)"/>
</clipPath>
</defs>
</svg>
