<svg width="132" height="27" viewBox="0 0 132 27" fill="none" xmlns="http://www.w3.org/2000/svg">
<g clip-path="url(#clip0_10632_38583)">
<path fill-rule="evenodd" clip-rule="evenodd" d="M11.0415 1.19288C11.0314 1.26021 11.0292 1.36316 11.0363 1.42167C11.0435 1.48017 10.8288 1.52936 10.5592 1.531C10.2894 1.5328 9.72599 1.62007 9.30688 1.72499C8.88779 1.82974 8.38288 1.94887 8.18491 1.98973C7.98694 2.03058 7.48981 2.24598 7.08001 2.46872C6.67036 2.69131 6.33507 2.83038 6.33507 2.77792C6.33507 2.66777 5.48773 3.29009 5.04501 3.72545C4.88026 3.8874 4.65821 3.98399 4.55153 3.94018C4.44485 3.89622 4.37383 3.91665 4.39379 3.98546C4.41376 4.05425 4.15574 4.3641 3.82062 4.67412C2.9306 5.49679 2.89525 5.5365 2.69392 5.94015C2.59257 6.14297 2.44292 6.26472 2.36123 6.21062C2.27954 6.15636 2.22254 6.17271 2.23458 6.2469C2.28929 6.58503 2.19953 6.6499 1.95356 6.45037C1.72663 6.26618 1.71536 6.26814 1.87736 6.46295C2.11662 6.75073 2.12638 7.01156 1.89184 6.85631C1.77967 6.78179 1.75742 6.81169 1.83057 6.93867C1.89366 7.048 1.84611 7.2616 1.72496 7.41325C1.53766 7.6476 1.3057 8.12822 1.23698 8.42435C1.22661 8.4693 1.10926 8.76345 0.976369 9.07805C0.843323 9.39263 0.645505 9.98094 0.536539 10.3854C0.427725 10.7899 0.307939 11.2312 0.2706 11.3659C0.23311 11.5008 0.19364 12.5671 0.182819 13.7356C0.161483 16.0454 0.376213 17.2772 1.09295 18.9562C1.3051 19.4531 1.43479 19.936 1.381 20.0292C1.32719 20.1225 1.34975 20.1787 1.43098 20.154C1.56372 20.1137 2.67746 21.5193 2.67746 21.727C2.67746 21.7735 2.95315 22.1135 3.29027 22.4822C3.62723 22.8509 3.86619 23.2166 3.82123 23.2947C3.77612 23.3728 3.81955 23.4898 3.9177 23.5549C4.0291 23.6287 4.05532 23.6025 3.98734 23.4846C3.9276 23.3808 3.92333 23.2959 3.97789 23.2959C4.15925 23.2959 4.88422 23.9716 5.08829 24.331C5.2032 24.5332 5.25562 24.5663 5.21067 24.4083C5.14757 24.1862 5.26385 24.2168 5.79969 24.5639C6.16682 24.8018 6.42698 25.0664 6.37759 25.1518C6.32837 25.2374 6.3651 25.2563 6.45944 25.1938C6.55377 25.1313 6.838 25.195 7.09098 25.3352C7.34412 25.4756 7.56891 25.5838 7.59085 25.5756C7.61265 25.5675 7.80193 25.6295 8.01148 25.7133C8.61057 25.9535 9.97607 26.1696 10.4173 26.0945C10.4831 26.0832 10.5234 25.6513 10.5068 25.1344C10.49 24.6174 10.464 23.0181 10.449 21.5799C10.4307 19.8445 10.3537 18.7909 10.2201 18.4474C10.1093 18.1625 10.0585 17.8868 10.1073 17.8345C10.1561 17.7823 10.1269 17.7395 10.0425 17.7395C9.82703 17.7395 9.51034 16.9377 9.63425 16.7058C9.69063 16.6002 9.68377 16.5649 9.61916 16.6274C9.48504 16.7568 8.77349 15.9114 8.77349 15.6226C8.77349 15.5179 8.70491 15.4777 8.62108 15.5332C8.53727 15.5888 8.46868 15.5563 8.46868 15.4612C8.46868 15.366 8.37191 15.2881 8.25365 15.2881C7.96119 15.2881 7.22265 14.323 7.34824 14.1051C7.40387 14.0086 7.37796 13.9773 7.29032 14.0353C7.10622 14.1574 6.74564 13.7584 6.89514 13.598C6.95031 13.5389 6.92152 13.4905 6.83114 13.4905C6.74077 13.4905 6.68483 13.3618 6.70694 13.2045C6.72888 13.0471 6.64567 12.752 6.52207 12.5485C6.00467 11.6972 6.39741 8.08624 7.03582 7.82361C7.1524 7.77556 7.21412 7.678 7.17297 7.60658C7.13182 7.53533 7.40645 7.12677 7.78349 6.69893C8.16037 6.27109 8.46976 5.98788 8.47097 6.06959C8.47234 6.1513 8.5237 6.13561 8.58527 6.03478C8.83871 5.61985 10.7562 4.93167 11.5929 4.95537C12.2417 4.97383 13.2472 5.17681 13.5331 5.34693C13.7233 5.46019 13.9131 5.56069 13.9551 5.57033C14.2367 5.63488 14.8695 6.05145 14.8695 6.17238C14.8695 6.25311 14.9381 6.2737 15.0219 6.21814C15.1058 6.16257 15.1743 6.23187 15.1743 6.37192C15.1743 6.51197 15.2813 6.6267 15.4119 6.6267C15.5425 6.6267 15.6071 6.70024 15.5553 6.79012C15.5035 6.88 15.5208 6.95354 15.5939 6.95354C15.772 6.95354 16.4443 7.94062 16.4443 8.20226C16.4443 8.31649 16.4994 8.37337 16.5668 8.32875C16.6343 8.28414 16.7305 8.45279 16.7806 8.70365C16.8308 8.95449 16.9327 9.32187 17.0073 9.51994C17.3004 10.3 16.9491 13.0349 16.4929 13.524C16.3844 13.6403 16.2814 13.79 16.2641 13.8565C16.1483 14.3025 16.026 14.471 15.8183 14.471C15.6877 14.471 15.6258 14.5194 15.6811 14.5786C15.8306 14.7389 15.4699 15.1379 15.2859 15.0158C15.1934 14.9545 15.1727 14.9899 15.2366 15.1007C15.2999 15.2103 15.2293 15.3383 15.0696 15.4039C14.5141 15.632 13.2635 17.5481 13.1454 18.3523C13.1041 18.6334 13.0239 18.9437 12.9674 19.0419C12.7809 19.3654 12.8617 25.9554 13.0537 26.0825C13.2406 26.2066 14.2453 26.1441 14.3796 26.0002C14.4241 25.9524 14.5656 26.0047 14.6943 26.1163C14.8807 26.2782 14.9049 26.2778 14.8136 26.1149C14.7506 26.0026 14.7722 25.9106 14.8612 25.9106C14.9504 25.9106 15.3754 25.7286 15.8054 25.5062C16.2355 25.2836 16.6465 25.1409 16.719 25.189C16.7914 25.237 16.8507 25.186 16.8507 25.0759C16.8507 24.9657 16.8954 24.9235 16.9499 24.982C17.0045 25.0405 17.1468 24.9608 17.266 24.8049C17.401 24.6285 17.441 24.6142 17.3717 24.7667C17.3108 24.9015 17.46 24.8191 17.7034 24.5835C17.9469 24.3479 18.3519 24.0189 18.6033 23.852C18.8548 23.6851 19.0965 23.5101 19.1404 23.4631C19.6868 22.8785 20.5251 22.1228 20.4309 22.2998C20.348 22.4555 20.3666 22.491 20.4888 22.41C20.5879 22.3444 20.6518 22.2043 20.6313 22.0987C20.5876 21.8742 21.0989 20.9854 21.381 20.7955C21.4878 20.7236 21.5751 20.5582 21.5751 20.4278C21.5751 20.2975 21.6437 20.1908 21.7276 20.1908C21.8113 20.1908 21.88 20.0895 21.88 19.9656C21.88 19.8419 21.9787 19.6526 22.0996 19.5451C22.2202 19.4378 22.2849 19.2544 22.2431 19.1378C22.2013 19.0211 22.2707 18.8145 22.3974 18.6789C22.5238 18.5431 22.5896 18.3914 22.5432 18.3419C22.4969 18.2922 22.5153 18.1547 22.5841 18.0364C22.6531 17.9179 22.7299 17.6798 22.7549 17.5071C22.7799 17.3345 22.8556 17.1139 22.923 17.0168C23.2423 16.5576 23.2513 11.7708 22.9348 10.7787C22.8229 10.4276 22.7282 10.1024 22.7247 10.0561C22.7067 9.82488 21.8055 7.65659 21.6388 7.44381C21.5332 7.30899 21.4243 7.09736 21.3967 6.97332C21.3691 6.84944 21.2094 6.58649 21.0417 6.38908C20.4835 5.7318 20.2053 5.31931 20.3193 5.31817C20.3814 5.31767 20.243 5.18335 20.0118 5.01992C19.7806 4.8565 19.6434 4.65467 19.707 4.57165C19.7706 4.48847 19.7621 4.4731 19.6882 4.53733C19.5057 4.69602 18.9526 4.36264 19.0675 4.1631C19.1181 4.0755 19.0717 4.02402 18.9645 4.0487C18.8572 4.07337 18.7664 4.00784 18.7626 3.90292C18.7587 3.79817 18.6932 3.65109 18.617 3.57608C18.5364 3.49698 18.5242 3.52558 18.5879 3.64423C18.6481 3.75666 18.6226 3.8485 18.5314 3.8485C18.4399 3.8485 18.3258 3.73868 18.2778 3.60435C18.2297 3.47002 18.1291 3.40073 18.0539 3.45057C17.9789 3.50025 17.9175 3.471 17.9175 3.38569C17.9175 3.30022 17.649 3.11506 17.3209 2.97436C16.9928 2.83348 16.6794 2.64049 16.6245 2.54537C16.5697 2.45026 16.461 2.41463 16.383 2.46644C16.305 2.51808 16.2411 2.48245 16.2411 2.38734C16.2411 2.29223 16.1898 2.22294 16.1268 2.23355C16.0639 2.24435 15.9783 2.23862 15.9363 2.22114C15.8512 2.18568 15.793 2.16966 14.4592 1.81781C13.3762 1.53198 12.2754 1.37216 11.5423 1.39405C11.2277 1.40337 11.0717 1.3447 11.1322 1.23978C11.186 1.14663 11.1915 1.07031 11.1446 1.07031C11.0979 1.07031 11.0514 1.12555 11.0415 1.19288ZM39.8121 5.88803C39.4069 6.00994 39.0361 6.15179 38.988 6.20327C38.94 6.25491 38.8093 6.21569 38.6976 6.11632C38.5412 5.97709 38.4616 6.024 38.3503 6.32207C38.2711 6.53453 38.2018 6.6432 38.1964 6.56362C38.1912 6.48386 38.0072 6.6115 37.7874 6.84699C37.5678 7.08248 37.3261 7.23415 37.2501 7.18397C37.1744 7.13381 37.1313 7.16044 37.1542 7.2433C37.2186 7.47454 36.1961 8.43726 36.0142 8.31682C35.9182 8.25308 35.8991 8.2892 35.9667 8.40622C36.1074 8.65086 35.7705 9.11204 35.5552 8.9692C35.4678 8.91135 35.4416 8.94224 35.4968 9.03801C35.6489 9.30194 35.4319 9.7618 35.2002 9.66653C35.0881 9.62045 34.9491 9.66424 34.8916 9.76409C34.8236 9.88176 34.8572 9.89909 34.9868 9.81312C35.14 9.71164 35.1615 9.77276 35.0789 10.0739C35.0196 10.2901 34.9541 10.5407 34.9333 10.6306C34.9125 10.7204 34.8156 10.9497 34.7177 11.1402C34.6199 11.3307 34.5833 11.5328 34.6362 11.5897C34.689 11.6464 34.6695 11.6929 34.5927 11.6929C34.4328 11.6929 34.4118 11.9262 34.4093 13.7356C34.4067 15.6254 34.4386 16.0835 34.5673 15.9982C34.6714 15.9294 34.743 16.3471 34.7209 16.8924C34.716 17.0108 34.7498 17.0669 34.7962 17.0174C34.8833 16.924 35.2912 17.6677 35.2912 17.9204C35.2912 18.2209 36.8923 20.0454 37.7497 20.7218C38.7869 21.5402 40.3389 22.0228 41.9172 22.0178C43.0147 22.0143 43.9012 21.8926 44.1938 21.7049C44.2847 21.6466 44.2573 21.7417 44.133 21.9162C43.9142 22.2237 43.9169 22.2246 44.2215 21.9473C44.3947 21.7898 44.5992 21.7162 44.6762 21.7839C44.7533 21.8515 44.7649 21.8395 44.702 21.757C44.6393 21.6749 45.0005 21.3622 45.5048 21.0625C46.5129 20.4634 46.6397 20.419 46.4772 20.722C46.4136 20.8406 46.4257 20.8692 46.5063 20.7901C46.5826 20.7151 46.645 20.568 46.645 20.4633C46.645 20.3584 46.7251 20.2725 46.8228 20.2725C46.9205 20.2725 47.0577 20.2055 47.1277 20.1238C47.203 20.0356 47.1615 20.0289 47.026 20.1075C46.9003 20.1804 47.0323 19.9731 47.3193 19.6471C47.7495 19.1583 47.8834 19.088 48.0813 19.2469C48.2767 19.4038 48.2882 19.3995 48.1427 19.2232C47.9223 18.9563 48.1988 18.1843 48.4579 18.3429C48.5505 18.3993 48.5774 18.3876 48.5181 18.317C48.4584 18.2462 48.5242 17.9586 48.664 17.6779C48.8038 17.3971 48.9271 17.1308 48.9378 17.0858C48.9486 17.0408 48.9932 16.8938 49.0369 16.7589C49.4057 15.6235 49.4966 15.1035 49.4966 14.1258C49.4966 13.391 49.5571 12.9994 49.6709 12.9977C49.7669 12.9963 49.7425 12.9239 49.6168 12.8368C49.4911 12.7496 49.4367 12.6773 49.4958 12.6758C49.555 12.6745 49.5016 12.3641 49.3773 11.9861C49.2527 11.6082 49.1843 11.206 49.2248 11.0926C49.2656 10.9789 49.232 10.8421 49.1505 10.7879C49.069 10.7339 49.0482 10.6098 49.1045 10.5122C49.1607 10.4146 49.1376 10.3807 49.0531 10.4367C48.8622 10.5632 48.5086 9.77259 48.6479 9.53089C48.7085 9.42548 48.6782 9.40162 48.5724 9.47173C48.4699 9.53971 48.353 9.46438 48.2944 9.29262C48.2388 9.12969 48.0335 8.82081 47.8383 8.6064C47.643 8.39183 47.4832 8.11172 47.4832 7.98393C47.4832 7.85597 47.4205 7.79289 47.3438 7.84371C47.2672 7.89453 47.1814 7.88048 47.1533 7.81249C47.1253 7.74451 46.8119 7.47765 46.4573 7.21927C46.1025 6.96106 45.8559 6.67376 45.9092 6.58127C45.9642 6.48566 45.9321 6.46197 45.8349 6.52636C45.7405 6.58894 45.4639 6.52946 45.2201 6.39414C43.895 5.65939 41.3613 5.42227 39.8121 5.88803ZM88.4855 5.90061C88.6948 6.16977 88.6753 21.2864 88.4654 21.4255C88.1135 21.6587 88.7214 21.8202 89.962 21.8226L91.2163 21.8251L91.2574 14.2668C91.28 10.1097 91.2772 6.51116 91.2511 6.26995C91.204 5.83344 91.1976 5.83132 89.7776 5.77967C88.788 5.74373 88.3924 5.78066 88.4855 5.90061ZM128.953 5.83197C128.987 5.88917 128.908 6.03086 128.778 6.14689C128.647 6.26292 128.433 6.58012 128.302 6.8519C128.17 7.12367 127.987 7.43907 127.892 7.55265C127.443 8.09718 127.337 8.26093 127.438 8.26093C127.498 8.26093 127.406 8.42631 127.234 8.62863C127.062 8.83095 126.844 9.1591 126.749 9.35799C126.634 9.59593 126.484 9.68843 126.31 9.62845C126.109 9.55933 126.095 9.57534 126.252 9.69513C126.418 9.8226 126.377 9.98287 126.041 10.5278C125.811 10.8989 125.56 11.2025 125.483 11.2025C125.406 11.2025 125.385 11.2761 125.436 11.3659C125.488 11.4559 125.458 11.5294 125.369 11.5294C125.28 11.5294 125.207 11.6002 125.207 11.6866C125.207 11.7731 124.882 12.3575 124.484 12.9852L123.76 14.1263L123.492 13.7676C123.214 13.395 122.197 11.8141 121.931 11.3395C121.847 11.1901 121.547 10.7134 121.265 10.2802C120.982 9.84711 120.733 9.38103 120.711 9.24441C120.689 9.10795 120.603 9.01186 120.519 9.03082C120.436 9.04961 120.204 8.73714 120.006 8.33627C119.807 7.93523 119.594 7.60724 119.531 7.60724C119.468 7.60724 119.416 7.51458 119.416 7.40132C119.416 7.28808 119.242 6.99391 119.029 6.74764C118.816 6.50136 118.692 6.29985 118.753 6.29985C118.815 6.29985 118.732 6.19183 118.569 6.05994C118.377 5.90355 117.902 5.81825 117.207 5.81481L116.139 5.80958L116.17 13.7764L116.2 21.7433L117.503 21.7905L118.806 21.8378L118.824 17.133C118.833 14.5454 118.828 12.2629 118.813 12.0605C118.798 11.8582 118.87 11.6929 118.973 11.6929C119.078 11.6929 119.122 11.7358 119.074 11.7881C119.024 11.8405 119.099 12.0191 119.239 12.1851C119.73 12.7685 119.874 12.9881 119.874 13.1568C119.874 13.2504 119.942 13.3271 120.025 13.3271C120.109 13.3271 120.178 13.4373 120.178 13.5722C120.178 13.707 120.239 13.8173 120.312 13.8173C120.386 13.8173 120.531 14.0379 120.636 14.3076C120.74 14.5772 120.876 14.7979 120.939 14.7979C121.001 14.7979 121.239 15.1005 121.468 15.4704C121.695 15.8402 121.799 16.0876 121.697 16.0203C121.596 15.9527 121.862 16.375 122.29 16.9585C122.718 17.5418 123.036 18.0526 122.998 18.0936C122.96 18.1344 123.25 18.1422 123.643 18.1103C124.037 18.0786 124.411 17.9639 124.472 17.8552C124.668 17.514 124.973 17.053 125.132 16.857C125.388 16.5401 125.886 15.7216 126.112 15.2473C126.229 15.0002 126.421 14.7979 126.537 14.7979C126.654 14.7979 126.702 14.7161 126.644 14.6161C126.587 14.5163 126.6 14.3875 126.674 14.3301C126.748 14.2728 126.884 14.0788 126.976 13.899C127.07 13.7193 127.235 13.5722 127.345 13.5722C127.455 13.5722 127.557 13.3957 127.571 13.1802C127.586 12.9644 127.711 12.6998 127.848 12.5919C127.986 12.4841 128.054 12.348 128 12.2895C127.945 12.231 127.98 12.1831 128.078 12.1831C128.175 12.1831 128.255 12.0684 128.255 11.9283C128.255 11.7882 128.324 11.7189 128.408 11.7745C128.504 11.8382 128.56 13.7101 128.56 16.8502C128.56 20.717 128.603 21.8266 128.751 21.8325C130.959 21.9204 131.264 21.8992 131.22 21.6617C131.195 21.5268 131.17 17.9107 131.163 13.6259L131.151 5.8354L130.022 5.78163C129.401 5.75206 128.921 5.77477 128.953 5.83197ZM54.646 13.7987V21.8251H56.0144H57.383L57.4242 18.5157L57.4654 15.2064L58.4953 15.158L59.5248 15.1097L59.8666 15.73C60.0545 16.0713 60.1912 16.4056 60.1702 16.4729C60.1496 16.5404 60.1942 16.5772 60.2697 16.5547C60.345 16.5323 60.3997 16.5505 60.391 16.5955C60.3821 16.6405 60.4895 16.8243 60.6296 17.0041C61.1397 17.6589 61.6594 18.487 61.886 19.006C62.0134 19.2982 62.1969 19.5371 62.2935 19.5371C62.3902 19.5371 62.4292 19.5802 62.38 19.6328C62.331 19.6856 62.4295 19.8996 62.599 20.1084C62.7684 20.3174 62.8984 20.5336 62.8879 20.5884C62.8773 20.6435 63.0348 20.8666 63.2376 21.084C63.4405 21.3016 63.6307 21.551 63.6603 21.6381C63.7383 21.8687 66.6859 21.9549 66.6859 21.7268C66.6856 21.3698 66.3486 20.5197 66.2366 20.594C66.1736 20.6358 66.026 20.4702 65.9086 20.2261C65.7911 19.982 65.5445 19.6035 65.3604 19.3848C65.1762 19.1661 65.0602 18.9272 65.1027 18.8537C65.1451 18.7801 65.1069 18.72 65.0182 18.72C64.9296 18.72 64.8568 18.6421 64.8568 18.5469C64.8568 18.4518 64.9362 18.4263 65.0329 18.4904C65.1428 18.5633 65.1674 18.5351 65.0984 18.4157C65.0378 18.3105 64.9297 18.2632 64.8583 18.3105C64.6759 18.4314 63.7631 16.9379 63.8876 16.722C63.953 16.6084 63.9171 16.5929 63.7878 16.6788C63.6364 16.779 63.6135 16.7354 63.6961 16.5048C63.7565 16.3355 63.7567 16.25 63.6962 16.3149C63.5316 16.4913 63.0281 15.9374 63.0281 15.58C63.0281 15.4089 62.9709 15.3068 62.9011 15.353C62.8312 15.3992 62.7741 15.3426 62.7741 15.2268C62.7741 15.1111 63.0885 14.9177 63.4726 14.7969C63.8568 14.6761 64.2619 14.4614 64.3729 14.3199C64.5373 14.1102 64.5564 14.1079 64.4759 14.3076C64.4215 14.4425 64.4899 14.4057 64.6277 14.2258C64.7656 14.0461 64.9473 13.9193 65.0314 13.944C65.1155 13.9686 65.1409 13.9134 65.0877 13.8214C65.0347 13.7292 65.0754 13.6539 65.1782 13.6539C65.2809 13.6539 65.3212 13.607 65.2678 13.5498C65.2144 13.4924 65.2938 13.2535 65.4444 13.0187C66.4344 11.4741 66.2956 8.62585 65.1775 7.54088C65.0125 7.38073 64.9148 7.14541 64.9604 7.0181C65.014 6.86791 64.9684 6.81725 64.8304 6.87395C64.7133 6.92217 64.4829 6.83114 64.3181 6.67164C63.6412 6.01598 63.0849 5.93329 58.799 5.85141L54.646 5.77216V13.7987ZM72.3121 13.5313C72.3051 17.7784 72.2692 21.4737 72.2321 21.7433C72.1882 22.0638 72.2118 22.1579 72.3 22.0153C72.3742 21.8952 72.5644 21.8117 72.7226 21.8298C72.8809 21.848 73.439 21.8541 73.9628 21.8438C74.7165 21.829 74.9153 21.7718 74.9153 21.5703C74.9153 21.4266 74.9885 21.3639 75.083 21.4266C75.2032 21.5064 75.2055 21.4474 75.0907 21.2176C74.9938 21.0231 74.9429 19.8128 74.9614 18.1337L74.9915 15.3698L78.3718 15.3259C82.2259 15.2757 81.8955 15.4414 81.7733 13.6196L81.6972 12.4834L78.4587 12.5024C75.9135 12.5174 75.2197 12.4766 75.2178 12.3115C75.2162 12.163 75.1709 12.1733 75.0636 12.3465C74.9591 12.515 74.9201 11.9662 74.9383 10.5897L74.965 8.58777H78.9661C81.4344 8.58777 82.9866 8.52665 83.018 8.42811C83.0459 8.34035 83.0462 7.71526 83.0186 7.03901L82.9685 5.80958H77.6465H72.3245L72.3121 13.5313ZM97.3183 10.4398C97.3183 12.9866 97.271 15.1214 97.2121 15.1839C97.0605 15.3469 97.0161 15.7956 97.1619 15.6992C97.2295 15.6547 97.3376 15.9668 97.4023 16.3929C97.4669 16.8189 97.549 17.2778 97.5847 17.4126C97.6194 17.5475 97.6571 17.7866 97.6687 17.9437C97.6793 18.101 97.742 18.2297 97.8077 18.2297C97.8743 18.2297 97.9274 18.3401 97.9274 18.4749C97.9274 18.6097 98.0075 18.72 98.1059 18.72C98.2034 18.72 98.2401 18.7661 98.188 18.8223C98.1359 18.8785 98.2951 19.1155 98.5432 19.3491C98.7913 19.5824 98.995 19.8795 98.995 20.0092C98.995 20.1391 99.0403 20.1967 99.0954 20.1374C99.1504 20.078 99.2816 20.1614 99.3878 20.3225C99.493 20.4838 99.8907 20.788 100.273 20.9984C100.654 21.2091 100.941 21.4259 100.91 21.4806C100.879 21.5353 101.06 21.5881 101.312 21.5983C101.564 21.6082 101.815 21.6865 101.869 21.7719C101.988 21.9624 105.104 22.0004 105.324 21.8143C105.41 21.741 105.651 21.6415 105.857 21.5933C106.676 21.4028 107.376 21.0816 107.376 20.8973C107.376 20.7904 107.499 20.6614 107.648 20.6108C107.904 20.5235 109.28 18.9459 109.283 18.7362C109.284 18.6824 109.416 18.3441 109.578 17.9846C110.003 17.0402 110.002 17.0596 109.983 10.6714L109.967 5.80958H108.678H107.389L107.335 11.08C107.305 13.9787 107.243 16.4974 107.198 16.6773C107.146 16.8806 106.991 16.9992 106.788 16.9912C106.609 16.9839 106.462 17.0391 106.462 17.1138C106.462 17.1883 106.563 17.2492 106.686 17.2492C106.834 17.2492 106.877 17.3459 106.814 17.5352C106.722 17.8106 106.157 18.4899 106.157 18.3257C106.157 18.2816 105.982 18.4205 105.765 18.6346C105.546 18.8524 105.243 18.9965 105.076 18.9621C104.912 18.9282 104.814 18.9622 104.857 19.0376C104.901 19.1129 104.42 19.1828 103.789 19.1931C102.92 19.207 102.499 19.1328 102.048 18.8864C101.343 18.5012 101.164 18.2479 101.452 18.0446C101.595 17.9429 101.529 17.9194 101.243 17.9703C100.898 18.0314 100.808 17.9738 100.731 17.6479C100.68 17.43 100.585 17.2867 100.52 17.3299C100.194 17.5458 100.062 15.6777 100.062 10.885V5.80958H98.6899H97.3183V10.4398ZM43.1398 8.64791C43.3074 8.68174 43.5001 8.71884 43.5679 8.73028C43.6357 8.74188 43.6528 8.81788 43.6059 8.89942C43.5588 8.98081 43.6577 9.00908 43.8255 8.96201C43.9931 8.91495 44.1304 8.95008 44.1304 9.03997C44.1304 9.12985 44.2764 9.24425 44.455 9.29442C44.6914 9.3606 44.7513 9.46438 44.6756 9.67617C44.6184 9.836 44.6202 9.91461 44.6798 9.85071C44.7394 9.78681 44.8973 9.82587 45.0308 9.93748C45.2489 10.1197 45.2512 10.1071 45.054 9.81345C44.9332 9.63368 45.0771 9.74399 45.3736 10.0585C45.9964 10.7195 46.3181 11.3034 46.1859 11.5328C46.1351 11.6208 46.158 11.6929 46.2366 11.6929C46.5344 11.6929 46.8631 13.305 46.7199 14.0624C46.7028 14.1523 46.7005 14.4192 46.7146 14.6554C46.753 15.2961 46.1248 16.6359 45.8408 16.5191C45.6537 16.442 45.6459 16.4692 45.7984 16.6663C46.0106 16.9405 45.8723 17.3119 45.6203 17.1449C45.5264 17.0827 45.4984 17.1106 45.5553 17.2096C45.6107 17.3054 45.3884 17.611 45.0617 17.8885C44.4049 18.4462 44.2056 18.5179 44.338 18.1481C44.3861 18.0132 44.3592 17.9029 44.2781 17.9029C44.1969 17.9029 44.1304 18.0783 44.1304 18.2924C44.1304 18.6964 43.8122 18.8947 43.0636 18.957C42.854 18.9743 42.5707 19.0431 42.4339 19.1096C41.9305 19.3543 39.8877 18.8732 39.6651 18.4574C39.598 18.3322 39.438 18.2297 39.3095 18.2297C39.0203 18.2297 38.0981 17.2317 37.9619 16.7714C37.9067 16.5847 37.8084 16.4321 37.7434 16.4321C37.5157 16.4321 37.2147 15.0309 37.1816 13.8173C37.1515 12.7183 37.2013 12.4744 37.6628 11.4592C38.1493 10.3884 39.1741 9.16956 39.4396 9.34556C39.5051 9.38871 39.5584 9.33837 39.5584 9.23362C39.5584 9.12854 39.6644 9.08671 39.795 9.14047C39.9251 9.19391 39.9923 9.16972 39.9443 9.08654C39.8964 9.00352 40.1843 8.82604 40.5841 8.69221C41.2319 8.47534 42.2025 8.45867 43.1398 8.64791ZM61.4706 8.5309C62.0841 8.60984 62.4026 8.75954 62.811 9.16073C63.1056 9.45016 63.3328 9.75217 63.3157 9.83192C63.2984 9.91166 63.337 10.1055 63.4012 10.2629C63.4653 10.4202 63.4653 10.6775 63.4012 10.8348C63.337 10.9923 63.2912 11.1625 63.2994 11.2135C63.3371 11.4484 62.554 12.211 62.1464 12.3364C61.8966 12.4132 60.7241 12.4872 59.5407 12.5008L57.3893 12.5253V10.4748V8.42435L59.0275 8.42582C59.9287 8.42648 61.028 8.47387 61.4706 8.5309ZM40.2614 9.27137C40.3055 9.34769 40.4053 9.36796 40.4833 9.31615C40.6826 9.1841 40.6602 9.13246 40.4033 9.13246C40.2813 9.13246 40.2174 9.19506 40.2614 9.27137ZM123.284 13.1861C123.304 13.2929 123.436 13.3986 123.579 13.421C123.721 13.4434 123.798 13.3936 123.75 13.3101C123.702 13.2265 123.605 13.1968 123.533 13.2437C123.463 13.2906 123.37 13.2531 123.327 13.1606C123.284 13.0679 123.265 13.0793 123.284 13.1861ZM120.864 15.1247C120.915 15.2146 120.989 15.2881 121.025 15.2881C121.062 15.2881 121.093 15.2146 121.093 15.1247C121.093 15.0348 121.02 14.9613 120.931 14.9613C120.843 14.9613 120.812 15.0348 120.864 15.1247ZM38.2534 17.0483C38.3055 17.1041 38.4551 17.1665 38.5862 17.1872C38.7171 17.2079 38.7818 17.1791 38.7298 17.1232C38.6776 17.0674 38.528 17.0051 38.3969 16.9843C38.266 16.9637 38.2015 16.9924 38.2534 17.0483ZM122.769 18.5662C122.769 18.6613 122.837 18.6938 122.921 18.6383C123.005 18.5827 123.074 18.5049 123.074 18.4653C123.074 18.4255 123.005 18.3931 122.921 18.3931C122.837 18.3931 122.769 18.4711 122.769 18.5662ZM99.2295 20.8333C99.1813 20.9169 99.2006 21.0239 99.272 21.0712C99.3425 21.1184 99.4013 21.05 99.4013 20.919C99.4013 20.6435 99.3531 20.6195 99.2295 20.8333Z" fill="#6B7280"/>
</g>
<defs>
<clipPath id="clip0_10632_38583">
<rect width="131.278" height="26.0625" fill="white" transform="translate(0.181396 0.301331)"/>
</clipPath>
</defs>
</svg>
