<svg width="95" height="19" viewBox="0 0 95 19" fill="none" xmlns="http://www.w3.org/2000/svg">
<g clip-path="url(#clip0_10723_6886)">
<path fill-rule="evenodd" clip-rule="evenodd" d="M9.43413 1.14373C9.42713 1.19023 9.42559 1.26134 9.43053 1.30174C9.43546 1.34215 9.28719 1.37612 9.10099 1.37726C8.91466 1.3785 8.52554 1.43877 8.23609 1.51123C7.94664 1.58358 7.59793 1.66586 7.4612 1.69408C7.32447 1.72229 6.98113 1.87105 6.6981 2.02489C6.41518 2.17862 6.18361 2.27467 6.18361 2.23844C6.18361 2.16236 5.5984 2.59216 5.29263 2.89284C5.17885 3.0047 5.02549 3.0714 4.95181 3.04115C4.87814 3.01079 4.82909 3.0249 4.84287 3.07242C4.85667 3.11993 4.67847 3.33393 4.44701 3.54804C3.83233 4.11622 3.80791 4.14364 3.66886 4.42242C3.59887 4.5625 3.49551 4.64658 3.43909 4.60922C3.38267 4.57175 3.34331 4.58304 3.35162 4.63428C3.38941 4.8678 3.32741 4.91261 3.15753 4.7748C3.00081 4.6476 2.99302 4.64895 3.10491 4.78349C3.27015 4.98225 3.27689 5.16239 3.11491 5.05516C3.03744 5.0037 3.02207 5.02435 3.07259 5.11205C3.11617 5.18756 3.08333 5.33508 2.99965 5.43982C2.87029 5.60167 2.71009 5.93361 2.66263 6.13813C2.65547 6.16917 2.57442 6.37233 2.48264 6.5896C2.39075 6.80687 2.25413 7.21318 2.17887 7.49252C2.10372 7.77192 2.02099 8.07665 1.9952 8.16972C1.96931 8.26285 1.94205 8.99932 1.93458 9.80632C1.91984 11.4016 2.06814 12.2523 2.56316 13.4119C2.70967 13.7551 2.79925 14.0887 2.76209 14.153C2.72493 14.2175 2.74051 14.2563 2.79661 14.2392C2.88829 14.2113 3.65749 15.1821 3.65749 15.3256C3.65749 15.3577 3.8479 15.5925 4.08073 15.8471C4.31345 16.1018 4.47849 16.3544 4.44743 16.4083C4.41628 16.4623 4.44627 16.5431 4.51406 16.588C4.591 16.639 4.60911 16.6209 4.56216 16.5395C4.5209 16.4678 4.51795 16.4091 4.55563 16.4091C4.68089 16.4091 5.18159 16.8758 5.32253 17.124C5.40189 17.2637 5.43809 17.2865 5.40705 17.1774C5.36347 17.024 5.44378 17.0451 5.81385 17.2849C6.06741 17.4492 6.24709 17.6319 6.21298 17.6909C6.17899 17.7501 6.20435 17.7631 6.26951 17.7199C6.33466 17.6767 6.53096 17.7207 6.70568 17.8176C6.88051 17.9145 7.03576 17.9893 7.05091 17.9836C7.06597 17.978 7.19669 18.0209 7.34142 18.0787C7.75518 18.2446 8.69826 18.3939 9.00299 18.342C9.04846 18.3342 9.07626 18.0359 9.06479 17.6789C9.05319 17.3219 9.03526 16.2173 9.02486 15.224C9.01226 14.0255 8.95906 13.2978 8.86679 13.0605C8.79026 12.8638 8.75519 12.6733 8.78886 12.6373C8.82259 12.6012 8.80246 12.5716 8.74413 12.5716C8.59533 12.5716 8.37661 12.0179 8.46218 11.8577C8.50112 11.7848 8.49639 11.7604 8.45176 11.8035C8.35913 11.8929 7.8677 11.3091 7.8677 11.1096C7.8677 11.0373 7.82033 11.0095 7.76244 11.0479C7.70455 11.0863 7.65719 11.0638 7.65719 10.9981C7.65719 10.9324 7.59035 10.8786 7.50867 10.8786C7.30669 10.8786 6.79662 10.212 6.88335 10.0615C6.92177 9.99485 6.90388 9.97325 6.84335 10.0133C6.71621 10.0977 6.46717 9.82205 6.57043 9.71132C6.60853 9.67045 6.58864 9.63705 6.52622 9.63705C6.46381 9.63705 6.42517 9.54818 6.44044 9.43952C6.45559 9.33085 6.39813 9.12699 6.31276 8.98645C5.95542 8.39852 6.22667 5.90461 6.66758 5.72323C6.7481 5.69004 6.79073 5.62266 6.76231 5.57334C6.73389 5.52413 6.92356 5.24196 7.18396 4.94647C7.44425 4.65098 7.65793 4.45538 7.65877 4.51182C7.65971 4.56825 7.69519 4.55742 7.73771 4.48778C7.91275 4.20121 9.23706 3.72592 9.81493 3.74228C10.263 3.75504 10.9575 3.89522 11.1549 4.01272C11.2863 4.09094 11.4174 4.16035 11.4464 4.16701C11.6409 4.21159 12.0779 4.49929 12.0779 4.58281C12.0779 4.63857 12.1253 4.65279 12.1831 4.61442C12.2411 4.57604 12.2884 4.6239 12.2884 4.72062C12.2884 4.81735 12.3623 4.89658 12.4525 4.89658C12.5427 4.89658 12.5873 4.94738 12.5515 5.00945C12.5158 5.07153 12.5277 5.12232 12.5782 5.12232C12.7012 5.12232 13.1655 5.80404 13.1655 5.98474C13.1655 6.06364 13.2036 6.10292 13.2501 6.0721C13.2967 6.04129 13.3632 6.15777 13.3978 6.33102C13.4325 6.50427 13.5029 6.758 13.5543 6.8948C13.7568 7.43352 13.5142 9.32239 13.1991 9.66019C13.1241 9.74052 13.053 9.84392 13.0411 9.88985C12.9611 10.1979 12.8767 10.3143 12.7332 10.3143C12.643 10.3143 12.6003 10.3477 12.6384 10.3885C12.7417 10.4993 12.4926 10.7749 12.3655 10.6905C12.3016 10.6482 12.2873 10.6726 12.3315 10.7491C12.3751 10.8249 12.3264 10.9133 12.2161 10.9585C11.8325 11.1161 10.9687 12.4395 10.8871 12.9949C10.8586 13.189 10.8033 13.4033 10.7642 13.4711C10.6354 13.6945 10.6912 18.2459 10.8238 18.3337C10.9529 18.4194 11.6468 18.3763 11.7395 18.2769C11.7703 18.2439 11.868 18.28 11.9569 18.3571C12.0857 18.4689 12.1023 18.4686 12.0393 18.3561C11.9958 18.2785 12.0107 18.215 12.0722 18.215C12.1338 18.215 12.4273 18.0893 12.7243 17.9357C13.0213 17.7819 13.3052 17.6834 13.3553 17.7166C13.4053 17.7497 13.4462 17.7145 13.4462 17.6385C13.4462 17.5624 13.4771 17.5333 13.5147 17.5737C13.5524 17.6141 13.6507 17.559 13.7331 17.4513C13.8263 17.3295 13.8539 17.3196 13.8061 17.4249C13.764 17.5181 13.867 17.4611 14.0351 17.2984C14.2033 17.1357 14.483 16.9085 14.6567 16.7932C14.8303 16.6779 14.9973 16.5571 15.0276 16.5246C15.4049 16.1209 15.9839 15.5989 15.9189 15.7212C15.8616 15.8287 15.8745 15.8533 15.9589 15.7973C16.0273 15.752 16.0715 15.6553 16.0573 15.5823C16.0271 15.4273 16.3802 14.8134 16.5751 14.6823C16.6488 14.6326 16.7091 14.5183 16.7091 14.4283C16.7091 14.3383 16.7565 14.2646 16.8144 14.2646C16.8723 14.2646 16.9197 14.1947 16.9197 14.1091C16.9197 14.0237 16.9879 13.8929 17.0713 13.8187C17.1547 13.7445 17.1993 13.6179 17.1705 13.5373C17.1416 13.4567 17.1895 13.3141 17.277 13.2204C17.3643 13.1267 17.4097 13.0219 17.3777 12.9877C17.3457 12.9533 17.3585 12.8584 17.406 12.7767C17.4536 12.6949 17.5067 12.5304 17.5239 12.4111C17.5412 12.2919 17.5935 12.1395 17.64 12.0725C17.8605 11.7553 17.8668 8.44932 17.6482 7.76418C17.5709 7.52165 17.5055 7.29705 17.5031 7.26512C17.4907 7.1054 16.8683 5.60788 16.7531 5.46092C16.6802 5.36781 16.6049 5.22164 16.5859 5.13598C16.5668 5.05042 16.4565 4.86882 16.3407 4.73248C15.9552 4.27852 15.7631 3.99364 15.8418 3.99285C15.8847 3.99251 15.7891 3.89974 15.6294 3.78687C15.4697 3.674 15.375 3.53461 15.4189 3.47727C15.4628 3.41982 15.4569 3.40921 15.4059 3.45357C15.2799 3.56316 14.8979 3.33292 14.9773 3.1951C15.0122 3.1346 14.9801 3.09905 14.9061 3.1161C14.832 3.13314 14.7693 3.08788 14.7667 3.01542C14.764 2.94307 14.7187 2.84149 14.6661 2.78968C14.6105 2.73505 14.602 2.7548 14.646 2.83675C14.6876 2.9144 14.67 2.97783 14.607 2.97783C14.5438 2.97783 14.465 2.90198 14.4318 2.80921C14.3986 2.71643 14.3291 2.66858 14.2772 2.703C14.2254 2.73731 14.183 2.71711 14.183 2.65819C14.183 2.59916 13.9975 2.47128 13.7709 2.3741C13.5443 2.27681 13.3279 2.14352 13.29 2.07782C13.2521 2.01214 13.1771 1.98753 13.1232 2.02331C13.0693 2.05898 13.0252 2.03437 13.0252 1.96868C13.0252 1.903 12.9897 1.85514 12.9463 1.86247C12.9028 1.86992 12.8437 1.86597 12.8147 1.8539C12.7559 1.8294 12.7157 1.81834 11.7945 1.57534C11.0465 1.37793 10.2863 1.26755 9.77999 1.28267C9.56273 1.2891 9.45493 1.24858 9.49673 1.17613C9.53386 1.11179 9.53766 1.05908 9.50533 1.05908C9.47306 1.05908 9.44093 1.09723 9.43413 1.14373ZM29.3045 4.38642C29.0246 4.47062 28.7685 4.56859 28.7353 4.60414C28.7021 4.63981 28.6119 4.61272 28.5347 4.5441C28.4267 4.44794 28.3717 4.48033 28.2949 4.6862C28.2401 4.83293 28.1923 4.90798 28.1885 4.85302C28.185 4.79794 28.0579 4.88609 27.9061 5.04873C27.7544 5.21137 27.5875 5.31612 27.535 5.28146C27.4827 5.24682 27.4529 5.26521 27.4688 5.32244C27.5133 5.48214 26.8071 6.14704 26.6814 6.06386C26.6151 6.01984 26.6019 6.04479 26.6486 6.1256C26.7458 6.29456 26.5131 6.61308 26.3644 6.51443C26.3041 6.47448 26.286 6.49581 26.3241 6.56195C26.4291 6.74423 26.2793 7.06184 26.1193 6.99604C26.0418 6.96421 25.9458 6.99446 25.9061 7.06342C25.8591 7.14468 25.8823 7.15665 25.9719 7.09728C26.0777 7.02719 26.0925 7.0694 26.0355 7.27738C25.9945 7.42672 25.9493 7.59978 25.9349 7.66185C25.9205 7.72392 25.8536 7.88225 25.786 8.01385C25.7185 8.14538 25.6932 8.28498 25.7297 8.32425C25.7662 8.36345 25.7527 8.39552 25.6997 8.39552C25.5893 8.39552 25.5747 8.55665 25.573 9.80632C25.5712 11.1115 25.5933 11.4279 25.6821 11.369C25.754 11.3215 25.8035 11.61 25.7882 11.9866C25.7849 12.0683 25.8082 12.1071 25.8402 12.0729C25.9004 12.0084 26.1821 12.5221 26.1821 12.6965C26.1821 12.9041 27.2879 14.1642 27.8801 14.6313C28.5964 15.1966 29.6683 15.5299 30.7583 15.5264C31.5163 15.524 32.1286 15.4399 32.3307 15.3103C32.3934 15.2701 32.3745 15.3357 32.2887 15.4563C32.1375 15.6686 32.1394 15.6693 32.3498 15.4777C32.4694 15.3689 32.6107 15.3181 32.6638 15.3649C32.7171 15.4116 32.7251 15.4033 32.6817 15.3463C32.6383 15.2896 32.8878 15.0737 33.2361 14.8667C33.9323 14.4529 34.0199 14.4222 33.9077 14.6315C33.8637 14.7134 33.8721 14.7331 33.9278 14.6785C33.9805 14.6267 34.0236 14.5251 34.0236 14.4528C34.0236 14.3803 34.0789 14.3211 34.1464 14.3211C34.2139 14.3211 34.3086 14.2748 34.3569 14.2183C34.4089 14.1574 34.3803 14.1528 34.2867 14.2071C34.1999 14.2574 34.2911 14.1143 34.4893 13.8891C34.7864 13.5515 34.8789 13.503 35.0155 13.6127C35.1505 13.7211 35.1585 13.7181 35.0579 13.5963C34.9057 13.412 35.0967 12.8788 35.2757 12.9883C35.3396 13.0273 35.3582 13.0193 35.3172 12.9705C35.276 12.9216 35.3214 12.7229 35.418 12.5291C35.5145 12.3351 35.5997 12.1512 35.6071 12.1201C35.6145 12.0891 35.6453 11.9875 35.6755 11.8944C35.9303 11.1102 35.993 10.7511 35.993 10.0759C35.993 9.56832 36.0348 9.29785 36.1134 9.29672C36.1797 9.29572 36.1629 9.24572 36.0761 9.18558C35.9892 9.12538 35.9517 9.07538 35.9925 9.07438C36.0333 9.07345 35.9965 8.85912 35.9106 8.59805C35.8246 8.33705 35.7773 8.05925 35.8053 7.98092C35.8335 7.90245 35.8103 7.80792 35.754 7.77052C35.6977 7.73318 35.6833 7.64752 35.7222 7.58012C35.761 7.51272 35.7451 7.48925 35.6867 7.52798C35.5549 7.61532 35.3107 7.06929 35.4069 6.90236C35.4487 6.82956 35.4278 6.81308 35.3547 6.8615C35.2839 6.90845 35.2032 6.85642 35.1627 6.7378C35.1243 6.62527 34.9825 6.41194 34.8477 6.26386C34.7128 6.11567 34.6025 5.92221 34.6025 5.83395C34.6025 5.74558 34.5591 5.70201 34.5062 5.73711C34.4533 5.77221 34.3941 5.7625 34.3746 5.71555C34.3553 5.6686 34.1389 5.48429 33.8939 5.30584C33.6489 5.12751 33.4786 4.92909 33.5154 4.86521C33.5534 4.79918 33.5312 4.78282 33.4641 4.82728C33.3989 4.87051 33.2079 4.82943 33.0395 4.73597C32.1243 4.22852 30.3744 4.06475 29.3045 4.38642ZM62.9206 4.39512C63.0651 4.58101 63.0517 15.0213 62.9067 15.1173C62.6637 15.2784 63.0835 15.3899 63.9403 15.3916L64.8066 15.3933L64.835 10.1732C64.8506 7.30212 64.8487 4.81679 64.8307 4.6502C64.7981 4.34872 64.7937 4.34726 63.813 4.31159C63.1295 4.28676 62.8563 4.31227 62.9206 4.39512ZM90.8696 4.34771C90.8929 4.38721 90.8383 4.48507 90.7483 4.5652C90.6583 4.64534 90.5103 4.86442 90.4196 5.05212C90.3289 5.23982 90.2023 5.45765 90.1369 5.53609C89.8263 5.91217 89.7536 6.02526 89.8229 6.02526C89.8643 6.02526 89.8009 6.13948 89.6823 6.27922C89.5636 6.41894 89.4129 6.64558 89.3469 6.78294C89.2676 6.94728 89.1643 7.01116 89.0443 6.96974C88.9049 6.922 88.8956 6.93306 89.0036 7.01579C89.1183 7.10383 89.0903 7.21452 88.8583 7.59085C88.6996 7.84718 88.5263 8.05685 88.4729 8.05685C88.4196 8.05685 88.4049 8.10765 88.4403 8.16972C88.4763 8.23185 88.4556 8.28265 88.3943 8.28265C88.3329 8.28265 88.2823 8.33152 88.2823 8.39118C88.2823 8.45092 88.0576 8.85452 87.7829 9.28805L87.2829 10.0762L87.0976 9.82845C86.9056 9.57112 86.2036 8.47925 86.0196 8.15145C85.9616 8.04832 85.7543 7.71905 85.5596 7.41985C85.3643 7.12076 85.1923 6.79886 85.1769 6.7045C85.1616 6.61026 85.1023 6.54389 85.0443 6.55698C84.9869 6.56996 84.8269 6.35416 84.6903 6.0773C84.5529 5.80032 84.4056 5.57379 84.3623 5.57379C84.3183 5.57379 84.2829 5.5098 84.2829 5.43158C84.2829 5.35336 84.1623 5.1502 84.0156 4.98011C83.8683 4.81002 83.7829 4.67085 83.8249 4.67085C83.8676 4.67085 83.8103 4.59624 83.6976 4.50516C83.5649 4.39714 83.2369 4.33823 82.7569 4.33586L82.0196 4.33224L82.0409 9.83452L82.0616 15.3369L82.9616 15.3695L83.8616 15.4021L83.8736 12.1527C83.8803 10.3656 83.8763 8.78919 83.8663 8.64945C83.8556 8.50972 83.9056 8.39552 83.9769 8.39552C84.0489 8.39552 84.0796 8.42518 84.0463 8.46132C84.0123 8.49752 84.0636 8.62085 84.1603 8.73545C84.4996 9.13838 84.5989 9.29005 84.5989 9.40658C84.5989 9.47125 84.6463 9.52418 84.7036 9.52418C84.7616 9.52418 84.8089 9.60032 84.8089 9.69345C84.8089 9.78659 84.8509 9.86278 84.9016 9.86278C84.9523 9.86278 85.0529 10.0151 85.1249 10.2014C85.1969 10.3876 85.2909 10.54 85.3343 10.54C85.3776 10.54 85.5416 10.749 85.6996 11.0045C85.8569 11.2599 85.9283 11.4307 85.8583 11.3843C85.7883 11.3376 85.9723 11.6293 86.2676 12.0322C86.5629 12.4351 86.7829 12.7879 86.7563 12.8162C86.7303 12.8444 86.9309 12.8497 87.2023 12.8277C87.4743 12.8058 87.7323 12.7266 87.7749 12.6515C87.9103 12.4159 88.1203 12.0975 88.2303 11.9621C88.4069 11.7433 88.7509 11.178 88.9069 10.8504C88.9883 10.6797 89.1209 10.54 89.2009 10.54C89.2816 10.54 89.3149 10.4835 89.2749 10.4145C89.2356 10.3455 89.2443 10.2566 89.2956 10.2169C89.3463 10.1773 89.4403 10.0434 89.5043 9.91918C89.5689 9.79505 89.6829 9.69345 89.7589 9.69345C89.8349 9.69345 89.9049 9.57158 89.9149 9.42272C89.9256 9.27372 90.0116 9.09099 90.1063 9.01645C90.2016 8.94199 90.2483 8.84798 90.2109 8.80758C90.1729 8.76718 90.1976 8.73412 90.2649 8.73412C90.3323 8.73412 90.3876 8.65485 90.3876 8.55812C90.3876 8.46139 90.4349 8.41352 90.4929 8.45192C90.5596 8.49592 90.5983 9.78872 90.5983 11.9575C90.5983 14.6281 90.6276 15.3944 90.7296 15.3985C92.2549 15.4591 92.4656 15.4445 92.4349 15.2805C92.4176 15.1873 92.4003 12.6899 92.3956 9.73058L92.3876 4.35008L91.6076 4.31294C91.1789 4.29252 90.8469 4.3082 90.8696 4.34771ZM39.5495 9.84992V15.3933H40.4945H41.4397L41.4682 13.1077L41.4967 10.8221L42.2079 10.7887L42.919 10.7553L43.155 11.1838C43.2848 11.4195 43.3792 11.6504 43.3647 11.6969C43.3505 11.7435 43.3813 11.7689 43.4334 11.7533C43.4855 11.7379 43.5232 11.7505 43.5172 11.7815C43.5111 11.8126 43.5853 11.9395 43.682 12.0637C44.0343 12.5159 44.3932 13.0879 44.5497 13.4463C44.6377 13.6481 44.7645 13.8131 44.8312 13.8131C44.8979 13.8131 44.9249 13.8429 44.8909 13.8793C44.8571 13.9157 44.9251 14.0635 45.0421 14.2077C45.1591 14.3521 45.2489 14.5013 45.2417 14.5392C45.2344 14.5773 45.3431 14.7313 45.4832 14.8815C45.6233 15.0318 45.7547 15.204 45.7751 15.2642C45.829 15.4235 47.8647 15.483 47.8647 15.3255C47.8645 15.0789 47.6318 14.4918 47.5545 14.5431C47.5109 14.5719 47.409 14.4576 47.3279 14.289C47.2468 14.1204 47.0765 13.859 46.9493 13.7079C46.8221 13.5569 46.742 13.3919 46.7713 13.3411C46.8006 13.2903 46.7743 13.2488 46.713 13.2488C46.6518 13.2488 46.6015 13.195 46.6015 13.1293C46.6015 13.0636 46.6563 13.046 46.7231 13.0903C46.799 13.1406 46.816 13.1211 46.7684 13.0387C46.7265 12.966 46.6519 12.9333 46.6025 12.966C46.4765 13.0495 45.8461 12.018 45.9321 11.8689C45.9773 11.7905 45.9525 11.7797 45.8632 11.8391C45.7587 11.9083 45.7428 11.8781 45.7999 11.7189C45.8416 11.6019 45.8417 11.5429 45.7999 11.5877C45.6863 11.7095 45.3385 11.327 45.3385 11.0802C45.3385 10.962 45.299 10.8915 45.2508 10.9234C45.2025 10.9553 45.1631 10.9162 45.1631 10.8363C45.1631 10.7563 45.3802 10.6227 45.6455 10.5393C45.9109 10.4559 46.1907 10.3076 46.2673 10.2099C46.3809 10.0651 46.394 10.0635 46.3384 10.2014C46.3009 10.2945 46.3481 10.2691 46.4433 10.1449C46.5385 10.0208 46.664 9.93318 46.7221 9.95025C46.7802 9.96725 46.7977 9.92912 46.761 9.86558C46.7244 9.80192 46.7525 9.74992 46.8235 9.74992C46.8944 9.74992 46.9223 9.71752 46.8853 9.67799C46.8485 9.63839 46.9033 9.47338 47.0073 9.31118C47.6911 8.24445 47.5952 6.2773 46.823 5.52796C46.709 5.41736 46.6415 5.25483 46.6731 5.1669C46.7101 5.06318 46.6786 5.02819 46.5833 5.06735C46.5024 5.10065 46.3433 5.03778 46.2295 4.92762C45.7619 4.4748 45.3777 4.41768 42.4177 4.36114L39.5495 4.3064V9.84992ZM51.7505 9.66525C51.7457 12.5985 51.7209 15.1507 51.6953 15.3369C51.6649 15.5582 51.6812 15.6232 51.7421 15.5247C51.7934 15.4417 51.9247 15.3841 52.034 15.3966C52.1433 15.4091 52.5288 15.4134 52.8905 15.4063C53.4111 15.396 53.5484 15.3565 53.5484 15.2173C53.5484 15.1181 53.5989 15.0748 53.6642 15.1181C53.7472 15.1732 53.7488 15.1325 53.6695 14.9738C53.6026 14.8395 53.5675 14.0035 53.5802 12.8439L53.601 10.935L55.9356 10.9047C58.5974 10.87 58.3693 10.9845 58.2849 9.72619L58.2323 8.94152L55.9956 8.95465C54.2378 8.96499 53.7586 8.93678 53.7573 8.82278C53.7562 8.72018 53.7249 8.72732 53.6508 8.84699C53.5786 8.96332 53.5517 8.58432 53.5643 7.63365L53.5827 6.251H56.3461C58.0508 6.251 59.1228 6.20878 59.1445 6.14072C59.1637 6.08012 59.1639 5.6484 59.1449 5.18135L59.1103 4.33224H55.4347H51.7591L51.7505 9.66525ZM69.0209 7.53012C69.0209 9.28905 68.9883 10.7635 68.9476 10.8066C68.8429 10.9192 68.8123 11.2291 68.9129 11.1625C68.9596 11.1317 69.0343 11.3473 69.0789 11.6416C69.1236 11.9358 69.1803 12.2527 69.2049 12.3459C69.2289 12.439 69.2549 12.6041 69.2629 12.7127C69.2703 12.8213 69.3136 12.9102 69.3589 12.9102C69.4049 12.9102 69.4416 12.9864 69.4416 13.0795C69.4416 13.1726 69.4969 13.2488 69.5649 13.2488C69.6323 13.2488 69.6576 13.2807 69.6216 13.3195C69.5856 13.3583 69.6956 13.5219 69.8669 13.6833C70.0383 13.8444 70.1789 14.0496 70.1789 14.1392C70.1789 14.2289 70.2103 14.2687 70.2483 14.2277C70.2863 14.1867 70.3769 14.2443 70.4503 14.3556C70.5229 14.467 70.7976 14.6771 71.0616 14.8224C71.3249 14.9679 71.5229 15.1177 71.5016 15.1554C71.4803 15.1932 71.6049 15.2297 71.7789 15.2367C71.9529 15.2435 72.1263 15.2976 72.1636 15.3566C72.2463 15.4881 74.3983 15.5144 74.5503 15.3859C74.6096 15.3353 74.7756 15.2665 74.9183 15.2333C75.4836 15.1017 75.9676 14.8799 75.9676 14.7525C75.9676 14.6787 76.0523 14.5897 76.1549 14.5547C76.3323 14.4944 77.2823 13.4048 77.2843 13.26C77.2849 13.2229 77.3763 12.9892 77.4883 12.7409C77.7816 12.0887 77.7809 12.1021 77.7676 7.69005L77.7569 4.33224H76.8663H75.9763L75.9389 7.97225C75.9183 9.97425 75.8756 11.7138 75.8443 11.838C75.8083 11.9785 75.7016 12.0603 75.5609 12.0548C75.4376 12.0498 75.3363 12.0879 75.3363 12.1395C75.3363 12.1909 75.4056 12.233 75.4909 12.233C75.5929 12.233 75.6229 12.2998 75.5789 12.4305C75.5156 12.6207 75.1256 13.0899 75.1256 12.9765C75.1256 12.946 75.0043 13.0419 74.8549 13.1898C74.7036 13.3403 74.4943 13.4398 74.3789 13.416C74.2656 13.3926 74.1976 13.4161 74.2276 13.4681C74.2576 13.5201 73.9256 13.5685 73.4896 13.5755C72.8896 13.5851 72.5989 13.5339 72.2876 13.3637C71.8009 13.0977 71.6769 12.9227 71.8756 12.7823C71.9749 12.7121 71.9289 12.6959 71.7316 12.731C71.4936 12.7732 71.4309 12.7335 71.3783 12.5084C71.3429 12.3579 71.2769 12.2589 71.2323 12.2887C71.0069 12.4379 70.9156 11.1477 70.9156 7.83759V4.33224H69.9683H69.0209V7.53012ZM31.6027 6.29253C31.7185 6.3159 31.8515 6.34152 31.8984 6.34942C31.9452 6.35743 31.957 6.40992 31.9246 6.46624C31.8921 6.52244 31.9604 6.54197 32.0763 6.50947C32.1921 6.47696 32.2869 6.50123 32.2869 6.56331C32.2869 6.62538 32.3877 6.70439 32.5111 6.73904C32.6743 6.78475 32.7157 6.85643 32.6634 7.0027C32.6239 7.11309 32.6251 7.16737 32.6663 7.12324C32.7075 7.07911 32.8165 7.10609 32.9087 7.18317C33.0593 7.30905 33.0609 7.30032 32.9247 7.09751C32.8413 6.97335 32.9407 7.04954 33.1455 7.26678C33.5756 7.72325 33.7978 8.12652 33.7065 8.28498C33.6714 8.34572 33.6872 8.39552 33.7415 8.39552C33.9472 8.39552 34.1742 9.50892 34.0753 10.0321C34.0635 10.0941 34.0619 10.2785 34.0717 10.4416C34.0981 10.8841 33.6643 11.8094 33.4681 11.7287C33.3389 11.6755 33.3335 11.6943 33.4389 11.8304C33.5854 12.0198 33.4899 12.2763 33.3159 12.161C33.251 12.118 33.2317 12.1373 33.271 12.2057C33.3092 12.2718 33.1557 12.4829 32.9301 12.6745C32.4765 13.0597 32.3388 13.1092 32.4303 12.8538C32.4635 12.7607 32.4449 12.6845 32.3889 12.6845C32.3328 12.6845 32.2869 12.8056 32.2869 12.9535C32.2869 13.2325 32.0671 13.3695 31.5501 13.4125C31.4053 13.4245 31.2097 13.4719 31.1152 13.5179C30.7675 13.6869 29.3567 13.3546 29.2029 13.0675C29.1566 12.981 29.0461 12.9102 28.9573 12.9102C28.7576 12.9102 28.1207 12.2209 28.0266 11.903C27.9885 11.7741 27.9206 11.6687 27.8757 11.6687C27.7185 11.6687 27.5105 10.7009 27.4877 9.86278C27.4669 9.10372 27.5013 8.93532 27.8201 8.23412C28.1561 7.49458 28.8638 6.6528 29.0472 6.77436C29.0924 6.80416 29.1292 6.7694 29.1292 6.69705C29.1292 6.62448 29.2025 6.59558 29.2926 6.63272C29.3825 6.66962 29.4289 6.65292 29.3957 6.59547C29.3627 6.53813 29.5615 6.41556 29.8376 6.32312C30.285 6.17334 30.9554 6.16183 31.6027 6.29253ZM44.2628 6.21172C44.6865 6.26624 44.9065 6.36962 45.1886 6.64671C45.3921 6.8466 45.5489 7.05518 45.5371 7.11026C45.5252 7.16534 45.5519 7.29918 45.5962 7.40792C45.6405 7.51658 45.6405 7.69425 45.5962 7.80292C45.5519 7.91165 45.5202 8.02925 45.5259 8.06445C45.5519 8.22665 45.0111 8.75339 44.7296 8.83999C44.5571 8.89299 43.7473 8.94412 42.9299 8.95352L41.4441 8.97045V7.55425V6.13813L42.5755 6.13915C43.1979 6.1396 43.9571 6.17233 44.2628 6.21172ZM29.6147 6.72312C29.6452 6.77583 29.7141 6.78983 29.768 6.75405C29.9057 6.66285 29.8902 6.62718 29.7127 6.62718C29.6285 6.62718 29.5843 6.67042 29.6147 6.72312ZM86.9543 9.42685C86.9676 9.50058 87.0589 9.57359 87.1576 9.58905C87.2556 9.60452 87.3089 9.57012 87.2756 9.51245C87.2429 9.45472 87.1756 9.43418 87.1263 9.46658C87.0776 9.49898 87.0136 9.47312 86.9836 9.40919C86.9543 9.34519 86.9409 9.35305 86.9543 9.42685ZM85.2829 10.7657C85.3183 10.8278 85.3689 10.8786 85.3943 10.8786C85.4196 10.8786 85.4409 10.8278 85.4409 10.7657C85.4409 10.7037 85.3903 10.6529 85.3289 10.6529C85.2683 10.6529 85.2469 10.7037 85.2829 10.7657ZM28.2279 12.0943C28.2639 12.1328 28.3673 12.1759 28.4578 12.1902C28.5482 12.2045 28.5929 12.1846 28.5569 12.146C28.5209 12.1075 28.4176 12.0644 28.3271 12.0501C28.2367 12.0358 28.1921 12.0557 28.2279 12.0943ZM86.5983 13.1426C86.5983 13.2083 86.6456 13.2307 86.7036 13.1924C86.7616 13.154 86.8089 13.1003 86.8089 13.0729C86.8089 13.0454 86.7616 13.0231 86.7036 13.0231C86.6456 13.0231 86.5983 13.0769 86.5983 13.1426ZM70.3409 14.7083C70.3076 14.7661 70.3209 14.84 70.3703 14.8727C70.4189 14.9053 70.4596 14.858 70.4596 14.7675C70.4596 14.5773 70.4263 14.5607 70.3409 14.7083Z" fill="#6B7280"/>
</g>
<defs>
<clipPath id="clip0_10723_6886">
<rect width="90.6667" height="18" fill="white" transform="translate(1.93359 0.527954)"/>
</clipPath>
</defs>
</svg>
