<svg width="320" height="25" viewBox="0 0 320 25" fill="none" xmlns="http://www.w3.org/2000/svg">
<path d="M7.55016 21.9321C16.6045 21.9321 21.5583 14.4288 21.5583 7.92399C21.5583 7.71305 21.5536 7.49743 21.5442 7.28649C22.5079 6.58959 23.3395 5.72638 24 4.73743C23.1025 5.13673 22.1496 5.39751 21.1739 5.51086C22.2013 4.89504 22.9705 3.9276 23.3391 2.7879C22.3726 3.36069 21.3156 3.76474 20.2134 3.98274C19.4708 3.19369 18.489 2.67125 17.4197 2.49618C16.3504 2.32111 15.2532 2.50318 14.2977 3.01423C13.3423 3.52527 12.5818 4.33683 12.1338 5.32344C11.6859 6.31005 11.5754 7.41674 11.8195 8.47243C9.86249 8.37422 7.94794 7.86583 6.19998 6.98023C4.45203 6.09462 2.90969 4.85157 1.67297 3.33165C1.0444 4.41537 0.852057 5.69777 1.13503 6.91822C1.418 8.13867 2.15506 9.20558 3.19641 9.90211C2.41463 9.87729 1.64998 9.66681 0.965625 9.28805V9.34899C0.964925 10.4863 1.3581 11.5887 2.07831 12.4689C2.79852 13.3491 3.80132 13.9527 4.91625 14.1771C4.19206 14.3753 3.43198 14.4041 2.69484 14.2615C3.00945 15.2396 3.62157 16.095 4.44577 16.7085C5.26997 17.3219 6.26512 17.6627 7.29234 17.6834C5.54842 19.0532 3.39417 19.7963 1.17656 19.7927C0.783287 19.7921 0.390399 19.768 0 19.7206C2.25286 21.1659 4.87353 21.9335 7.55016 21.9321Z" fill="#383A47"/>
<g clip-path="url(#clip0_10632_38056)">
<path d="M70.2234 0.182129H49.7719C48.7922 0.182129 48 0.955567 48 1.91182V22.4478C48 23.404 48.7922 24.1821 49.7719 24.1821H70.2234C71.2031 24.1821 72 23.404 72 22.4524V1.91182C72 0.955567 71.2031 0.182129 70.2234 0.182129ZM55.1203 20.6337H51.5578V9.17744H55.1203V20.6337ZM53.3391 7.6165C52.1953 7.6165 51.2719 6.69307 51.2719 5.554C51.2719 4.41494 52.1953 3.4915 53.3391 3.4915C54.4781 3.4915 55.4016 4.41494 55.4016 5.554C55.4016 6.68838 54.4781 7.6165 53.3391 7.6165ZM68.4516 20.6337H64.8937V15.0649C64.8937 13.7384 64.8703 12.0274 63.0422 12.0274C61.1906 12.0274 60.9094 13.4759 60.9094 14.9712V20.6337H57.3563V9.17744H60.7687V10.7431H60.8156C61.2891 9.84307 62.4516 8.8915 64.1813 8.8915C67.7859 8.8915 68.4516 11.2634 68.4516 14.3478V20.6337Z" fill="#383A47"/>
</g>
<g clip-path="url(#clip1_10632_38056)">
<path d="M120 12.1821C120 5.55471 114.627 0.182129 108 0.182129C101.373 0.182129 96 5.55471 96 12.1821C96 18.1716 100.388 23.1361 106.125 24.0363V15.6509H103.078V12.1821H106.125V9.53838C106.125 6.53088 107.917 4.86963 110.658 4.86963C111.97 4.86963 113.344 5.104 113.344 5.104V8.05713H111.831C110.34 8.05713 109.875 8.98221 109.875 9.93213V12.1821H113.203L112.671 15.6509H109.875V24.0363C115.612 23.1361 120 18.1716 120 12.1821Z" fill="#383A47"/>
</g>
<defs>
<clipPath id="clip0_10632_38056">
<rect width="24" height="24" fill="white" transform="translate(48 0.182129)"/>
</clipPath>
<clipPath id="clip1_10632_38056">
<rect width="24" height="24" fill="white" transform="translate(96 0.182129)"/>
</clipPath>
</defs>
</svg>
