<svg width="44" height="19" viewBox="0 0 44 19" fill="none" xmlns="http://www.w3.org/2000/svg">
<g clip-path="url(#clip0_10723_6883)">
<path fill-rule="evenodd" clip-rule="evenodd" d="M21.9567 0.564781C21.2993 0.702347 20.8268 1.13836 20.6524 1.76841C20.589 1.99715 20.5838 2.37245 20.6406 2.60884C20.7234 2.95283 20.9553 3.314 21.2252 3.51913C21.5325 3.75266 21.8822 3.87179 22.2581 3.87104C22.5296 3.8705 22.7362 3.82193 22.9755 3.70242C23.3165 3.53212 23.5388 3.31386 23.7123 2.97936C24.0113 2.40273 23.9392 1.65389 23.5365 1.15342C23.3206 0.884911 22.9714 0.661944 22.6472 0.585415C22.5113 0.553361 22.0737 0.54028 21.9567 0.564781ZM10.6592 2.1778C10.1114 2.26992 9.52502 2.36719 9.35622 2.39399L9.04941 2.44272L8.86052 3.61775C8.75663 4.26402 8.66423 4.8012 8.6552 4.81149C8.64617 4.82177 8.43737 4.86272 8.19115 4.90248C7.87334 4.9538 7.73814 4.98467 7.72485 5.0089C7.71458 5.02767 7.63374 5.49858 7.54522 6.05537C7.45669 6.61219 7.37883 7.09077 7.37227 7.11893L7.3602 7.1701H8.00793H8.65559L8.65582 9.56447C8.65593 10.9659 8.66535 12.0673 8.67859 12.2205C8.82877 13.9597 9.7143 14.7792 11.5266 14.8564C12.2008 14.8851 12.7229 14.8408 13.2912 14.7066L13.5459 14.6466V13.3969V12.1473L13.4836 12.1634C13.2381 12.2272 12.973 12.2683 12.7286 12.2808C12.4775 12.2935 12.4248 12.2895 12.2866 12.2474C12.0165 12.165 11.8667 11.9901 11.7914 11.6692C11.7632 11.5486 11.7579 11.1899 11.7577 9.34837L11.7573 7.1701H12.5592H13.3611L13.3743 7.10754C13.3816 7.07316 13.464 6.56894 13.5574 5.98713C13.651 5.40531 13.7326 4.90626 13.739 4.87809L13.7505 4.82691H12.7539H11.7573V3.41644V2.00598L11.7063 2.00816C11.6783 2.00939 11.2072 2.08572 10.6592 2.1778ZM2.93896 4.67912C2.07162 4.80248 1.42664 5.09148 0.920007 5.5838C0.68674 5.81046 0.465322 6.11908 0.349269 6.37926C-0.00242256 7.16768 -0.00885264 8.25388 0.333876 8.98149C0.70895 9.77781 1.38818 10.2714 2.8484 10.809C3.33643 10.9886 3.82724 11.228 4.00085 11.371C4.08043 11.4366 4.16284 11.5317 4.20461 11.6063C4.26517 11.7143 4.27452 11.7531 4.27321 11.8906C4.26961 12.2726 3.99291 12.4843 3.43795 12.5294C2.75791 12.5848 1.38343 12.2051 0.502432 11.7185C0.412841 11.669 0.337634 11.6312 0.335256 11.6344C0.327537 11.645 -0.0384434 13.9596 -0.0383301 13.9972C-0.0381943 14.0384 0.417301 14.2637 0.731547 14.3779C1.36377 14.6077 2.07764 14.7701 2.7453 14.836C3.12773 14.8737 3.88638 14.8679 4.23934 14.8246C4.73654 14.7636 5.28605 14.6079 5.64609 14.4261C6.03851 14.2279 6.47238 13.853 6.70485 13.5111C7.09811 12.9328 7.28138 12.1368 7.20801 11.3257C7.10832 10.224 6.59321 9.53103 5.44761 8.95742C5.18653 8.82671 4.85515 8.68938 4.18417 8.43368C3.6226 8.21971 3.24637 7.99582 3.10537 7.79173C3.03563 7.69081 3.02952 7.66809 3.02952 7.50966C3.02952 7.36397 3.0381 7.32482 3.08519 7.25576C3.15509 7.15327 3.2875 7.06581 3.44836 7.01599C3.61257 6.96505 4.07434 6.96724 4.40665 7.02048C5.00118 7.11568 5.74555 7.35517 6.26363 7.61794C6.32405 7.64857 6.3783 7.66876 6.38424 7.66276C6.40489 7.642 6.7729 5.31595 6.75775 5.30219C6.72825 5.27543 6.3374 5.11626 6.11267 5.03948C5.65737 4.88389 5.25945 4.78834 4.73885 4.70959C4.33368 4.6483 3.28096 4.63049 2.93896 4.67912ZM29.8676 4.67863C29.2606 4.78137 28.6931 5.08593 28.135 5.60844L27.9515 5.78027L27.874 5.30927L27.7967 4.83828L26.4105 4.83241L25.0244 4.82656V11.5719C25.0244 17.9813 25.0264 18.3172 25.064 18.3163C25.0858 18.3157 25.7913 18.2003 26.6319 18.0599L28.1601 17.8046L28.1659 16.2273C28.1707 14.9138 28.1768 14.6519 28.2023 14.6617C28.2935 14.6969 28.7364 14.7934 28.9525 14.8253C29.279 14.8734 29.8717 14.8733 30.1985 14.825C30.9539 14.7135 31.5615 14.4403 32.1127 13.9643C32.6741 13.4795 33.1368 12.6728 33.3779 11.7587C33.5605 11.0664 33.6344 10.4128 33.6357 9.47914C33.637 8.53174 33.5734 7.92699 33.4008 7.24555C33.2023 6.46263 32.9102 5.90314 32.4627 5.4494C32.0335 5.01413 31.5746 4.78095 30.9455 4.67842C30.6961 4.63777 30.1082 4.63788 29.8676 4.67863ZM37.8952 4.68058C36.0748 4.92962 34.8173 6.21714 34.4085 8.25068C34.3003 8.78901 34.276 9.06911 34.2752 9.78629C34.2742 10.6819 34.3378 11.2155 34.5248 11.8792C34.9402 13.3541 35.8757 14.2979 37.2957 14.6747C37.8214 14.8142 38.2366 14.8614 38.9367 14.8613C40.1136 14.861 41.092 14.6579 41.9285 14.2403C42.0547 14.1773 42.1869 14.1026 42.2221 14.0744L42.2862 14.0231L42.1212 12.9682C42.0305 12.3881 41.9524 11.901 41.9475 11.8859C41.9418 11.868 41.8431 11.9045 41.6604 11.9922C40.9554 12.3304 40.1785 12.4994 39.3216 12.5007C38.9684 12.5012 38.8519 12.4928 38.6703 12.4536C38.1737 12.3465 37.8312 12.0904 37.6263 11.673C37.5209 11.4582 37.4273 11.1411 37.3969 10.8953L37.3807 10.7645H39.962H42.5431L42.5563 10.5882C42.6107 9.86039 42.589 8.99932 42.5008 8.38717C42.3318 7.21357 41.9286 6.29725 41.3036 5.66672C40.7454 5.10358 40.0944 4.79426 39.2243 4.67886C38.9075 4.63684 38.2084 4.63772 37.8952 4.68058ZM18.9749 4.71346C18.3307 4.81594 17.8096 5.20457 17.5474 5.77813L17.4778 5.93026L17.3881 5.37858L17.2983 4.82691H15.9202H14.542V9.75218V14.6774H16.1155H17.689V11.484V8.29062L17.8531 8.13411C18.1143 7.88519 18.4185 7.7491 18.8663 7.68088C19.0953 7.64599 19.6442 7.6388 19.8228 7.66831L19.9304 7.6861V6.22426V4.76244L19.8115 4.73573C19.6567 4.70096 19.14 4.6872 18.9749 4.71346ZM20.6775 9.75218V14.6774H22.251H23.8245V9.75218V4.82691H22.251H20.6775V9.75218ZM38.7865 6.82615C39.2716 6.97784 39.5546 7.5748 39.6179 8.57937L39.6337 8.8308H38.4985H37.3633V8.74189C37.3633 8.58509 37.434 8.09798 37.4877 7.88502C37.6512 7.23652 37.9262 6.88921 38.3482 6.79838C38.4603 6.77426 38.6612 6.78694 38.7865 6.82615ZM29.7235 7.13537C30.1354 7.3371 30.3832 7.88076 30.4807 8.79669C30.5123 9.09441 30.5121 10.0042 30.4803 10.3341C30.3973 11.1945 30.1479 11.8411 29.7595 12.2024C29.4022 12.5348 28.9188 12.5979 28.3356 12.3886L28.1714 12.3296V9.99094V7.65232L28.3016 7.53973C28.7104 7.18625 29.0156 7.05178 29.3839 7.06311C29.5562 7.06844 29.6104 7.07994 29.7235 7.13537Z" fill="#6B7280"/>
</g>
<defs>
<clipPath id="clip0_10723_6883">
<rect width="43.1964" height="17.9518" fill="white" transform="translate(0 0.552063)"/>
</clipPath>
</defs>
</svg>
